<svg width="48" height="48" viewBox="0 0 48 48" fill="none" xmlns="http://www.w3.org/2000/svg">
<path d="M30.6211 12.4746C31.9134 12.4746 32.9648 11.4232 32.9648 10.1308C32.9648 8.83849 31.9134 7.78699 30.6211 7.78699C29.3287 7.78699 28.2773 8.83849 28.2773 10.1308C28.2773 10.6586 28.4528 11.1461 28.7484 11.5384L24.8975 16.9197C24.6678 16.8443 24.4226 16.8028 24.1678 16.8028C23.5519 16.8028 22.9911 17.042 22.5724 17.4318L20.0057 15.9753C20.0399 15.8163 20.0583 15.6515 20.0583 15.4825C20.0583 14.1901 19.0069 13.1387 17.7145 13.1387C16.4222 13.1387 15.3708 14.1901 15.3708 15.4825C15.3708 15.6515 15.3891 15.8163 15.4234 15.9753L12.8566 17.4318C12.4379 17.042 11.8771 16.8029 11.2612 16.8029C9.96889 16.8029 8.91748 17.8544 8.91748 19.1468C8.91748 20.4391 9.96889 21.4906 11.2612 21.4906C12.5536 21.4906 13.605 20.4391 13.605 19.1468C13.605 18.9777 13.5866 18.8129 13.5524 18.6539L16.1192 17.1974C16.5379 17.5872 17.0987 17.8264 17.7145 17.8264C18.3304 17.8264 18.8911 17.5872 19.3099 17.1975L21.8766 18.654C21.8424 18.813 21.824 18.9778 21.824 19.1469C21.824 20.4392 22.8754 21.4907 24.1678 21.4907C25.4602 21.4907 26.5116 20.4392 26.5116 19.1469C26.5116 18.619 26.336 18.1314 26.0404 17.7391L29.8913 12.3578C30.121 12.4331 30.3663 12.4746 30.6211 12.4746ZM30.6211 9.19324C31.138 9.19324 31.5586 9.6138 31.5586 10.1308C31.5586 10.6478 31.138 11.0683 30.6211 11.0683C30.1041 11.0683 29.6836 10.6478 29.6836 10.1308C29.6835 9.6138 30.104 9.19324 30.6211 9.19324ZM11.2609 20.0842C10.744 20.0842 10.3234 19.6636 10.3234 19.1466C10.3234 18.6296 10.744 18.209 11.2609 18.209C11.7779 18.209 12.1984 18.6296 12.1984 19.1466C12.1984 19.6636 11.7779 20.0842 11.2609 20.0842ZM17.7143 16.42C17.1974 16.42 16.7768 15.9994 16.7768 15.4824C16.7768 14.9654 17.1974 14.5449 17.7143 14.5449C18.2313 14.5449 18.6518 14.9654 18.6518 15.4824C18.6519 15.9994 18.2313 16.42 17.7143 16.42ZM24.1677 20.0842C23.6508 20.0842 23.2302 19.6636 23.2302 19.1466C23.2302 18.6296 23.6508 18.209 24.1677 18.209C24.6847 18.209 25.1053 18.6296 25.1053 19.1466C25.1053 19.6636 24.6846 20.0842 24.1677 20.0842Z" fill="#FFB000"/>
<path d="M39.2621 35.3406H34.3416H7.54012H1.98891C1.66762 35.3406 1.40625 35.0792 1.40625 34.7579V5.74989C1.40625 5.42861 1.66762 5.16724 1.98891 5.16724H5.30353C5.69184 5.16724 6.00666 4.85252 6.00666 4.46411C6.00666 4.07571 5.69184 3.76099 5.30353 3.76099H1.98891C0.892219 3.76099 0 4.65321 0 5.74989V34.7579C0 35.8546 0.892219 36.7468 1.98891 36.7468H6.837V38.2943C6.837 39.1758 7.55419 39.893 8.43572 39.893H15.4739L12.1608 46.3615C11.9838 46.7072 12.1204 47.1309 12.466 47.308C12.5686 47.3605 12.6781 47.3854 12.786 47.3854C13.0415 47.3854 13.2879 47.2457 13.4123 47.0026L17.0539 39.893H24.8278L28.4693 47.0026C28.5938 47.2457 28.8402 47.3854 29.0957 47.3854C29.2036 47.3854 29.3131 47.3604 29.4157 47.308C29.7613 47.1309 29.898 46.7072 29.7209 46.3615L26.4078 39.893H33.446C34.3275 39.893 35.0447 39.1759 35.0447 38.2943V36.7468H39.2621C39.6504 36.7468 39.9652 36.4321 39.9652 36.0437C39.9652 35.6553 39.6504 35.3406 39.2621 35.3406ZM33.6384 38.2943C33.6384 38.4004 33.5521 38.4867 33.446 38.4867H8.43572C8.32959 38.4867 8.24325 38.4004 8.24325 38.2943V36.7468H33.6384V38.2943Z" fill="#FFB000"/>
<path d="M8.11621 5.16718H17.7417H24.1402H39.8929C40.2141 5.16718 40.4755 5.42856 40.4755 5.74984V12.4352C40.4755 12.8236 40.7903 13.1384 41.1786 13.1384C41.567 13.1384 41.8818 12.8236 41.8818 12.4352V5.74984C41.8818 4.65315 40.9896 3.76093 39.8929 3.76093H24.8435V2.37887C24.8435 1.40621 24.0521 0.614868 23.0794 0.614868H18.8027C17.83 0.614868 17.0386 1.40621 17.0386 2.37887V3.76093H8.11621C7.7279 3.76093 7.41309 4.07565 7.41309 4.46406C7.41309 4.85246 7.7279 5.16718 8.11621 5.16718ZM18.4448 2.37887C18.4448 2.18162 18.6053 2.02112 18.8027 2.02112H23.0794C23.2766 2.02112 23.4372 2.18162 23.4372 2.37887V3.76093H18.4449V2.37887H18.4448Z" fill="#FFB000"/>
<path d="M9.83447 25.0853C9.44616 25.0853 9.13135 25.4 9.13135 25.7885V32.0015C9.13135 32.3899 9.44616 32.7046 9.83447 32.7046H12.687C13.0753 32.7046 13.3901 32.3899 13.3901 32.0015V25.7885C13.3901 25.4 13.0753 25.0853 12.687 25.0853H9.83447ZM11.9839 31.2984H10.5376V26.4917H11.9839V31.2984Z" fill="#FFB000"/>
<path d="M16.2876 21.4919C15.8993 21.4919 15.5845 21.8067 15.5845 22.1951V32.0014C15.5845 32.3898 15.8993 32.7045 16.2876 32.7045H19.1401C19.5284 32.7045 19.8433 32.3898 19.8433 32.0014V22.1951C19.8433 21.8067 19.5284 21.4919 19.1401 21.4919H16.2876ZM18.4371 31.2983H16.9908V22.8982H18.4371V31.2983Z" fill="#FFB000"/>
<path d="M22.7412 25.0853C22.3529 25.0853 22.0381 25.4 22.0381 25.7885V32.0015C22.0381 32.3899 22.3529 32.7046 22.7412 32.7046H25.5937C25.9821 32.7046 26.2969 32.3899 26.2969 32.0015V25.7885C26.2969 25.4 25.9821 25.0853 25.5937 25.0853H22.7412ZM24.8906 31.2984H23.4443V26.4917H24.8906V31.2984Z" fill="#FFB000"/>
<path d="M29.1948 29.2343C28.8065 29.2343 28.4917 29.549 28.4917 29.9374V32.0015C28.4917 32.3899 28.8065 32.7046 29.1948 32.7046H32.0474C32.4357 32.7046 32.7505 32.3899 32.7505 32.0015C32.7505 31.6131 32.4357 31.2983 32.0474 31.2983H29.8979V29.9374C29.8979 29.549 29.5831 29.2343 29.1948 29.2343Z" fill="#FFB000"/>
<path d="M47.6412 36.0018L43.6075 29.0149C44.6294 27.9257 45.3736 26.5947 45.7711 25.1112C46.4065 22.7402 46.0804 20.2636 44.853 18.1377C42.3193 13.749 36.6877 12.2403 32.2992 14.7739C27.9107 17.3074 26.4018 22.9391 28.9355 27.3276C30.1629 29.4535 32.1447 30.9741 34.5157 31.6096C35.3075 31.8217 36.1108 31.9266 36.9091 31.9266C37.6068 31.9266 38.3005 31.8464 38.9788 31.6876L43.0118 38.6746C43.5061 39.5312 44.4063 40.0105 45.3309 40.0104C45.784 40.0104 46.243 39.8952 46.6629 39.6529C47.4875 39.177 47.9998 38.2894 47.9998 37.3368C47.9998 36.87 47.8759 36.4084 47.6412 36.0018ZM34.8796 30.2512C32.8714 29.7131 31.1928 28.4251 30.1532 26.6245C28.0073 22.9075 29.2854 18.1377 33.0023 15.9917C34.2251 15.2857 35.5613 14.9505 36.8811 14.9505C39.5731 14.9505 42.1951 16.3467 43.6351 18.8408C44.6746 20.6414 44.9508 22.7389 44.4127 24.7473C43.8746 26.7556 42.5865 28.434 40.786 29.4736C38.9855 30.5132 36.8879 30.7892 34.8796 30.2512ZM45.96 38.4349C45.3551 38.7843 44.5788 38.5763 44.2298 37.9716L40.3497 31.2494C40.7385 31.0907 41.1193 30.905 41.4893 30.6915C41.8595 30.4777 42.2101 30.2398 42.5421 29.9822L46.4233 36.7047C46.5347 36.8979 46.5936 37.1165 46.5936 37.3369C46.5936 37.7885 46.3508 38.2094 45.96 38.4349Z" fill="#FFB000"/>
<path d="M43.2697 24.7136C43.7661 23.1146 43.6479 21.4027 42.9368 19.8933C42.7713 19.542 42.3524 19.3914 42.0011 19.5569C41.6497 19.7224 41.4992 20.1413 41.6647 20.4926C42.2256 21.6832 42.3187 23.0341 41.9268 24.2965C41.5327 25.5659 40.6812 26.6311 39.5293 27.2962C38.3104 28.0001 36.8902 28.1868 35.5307 27.8226C34.1711 27.4583 33.0347 26.5863 32.331 25.3674C30.8782 22.8511 31.7435 19.6219 34.2598 18.1691C36.0997 17.107 38.3829 17.2489 40.0771 18.5307C40.3868 18.7651 40.8277 18.704 41.062 18.3943C41.2963 18.0846 41.2353 17.6436 40.9255 17.4093C38.7795 15.7855 35.8869 15.6058 33.5566 16.9512C32.0123 17.8427 30.9077 19.2824 30.4462 21.0047C29.9846 22.7271 30.2215 24.5262 31.1131 26.0704C32.0047 27.6148 33.4443 28.7193 35.1667 29.181C35.7418 29.3351 36.3255 29.4113 36.9053 29.4113C38.062 29.4113 39.2038 29.1079 40.2323 28.514C41.6917 27.6716 42.7704 26.322 43.2697 24.7136Z" fill="#FFB000"/>
</svg>
