<svg width="48" height="48" viewBox="0 0 48 48" fill="none" xmlns="http://www.w3.org/2000/svg">
<g clip-path="url(#clip0)">
<path d="M46.5585 28.8646V25.5038C46.5585 25.1161 46.3845 24.7552 46.0811 24.5133L40.5654 20.1203V12.0003C40.5654 11.143 39.868 10.4406 39.011 10.4345L37.5998 10.4242V9.43781L44.4288 2.60878C44.523 2.63016 44.6207 2.64244 44.7214 2.64244C45.451 2.64244 46.0426 2.05087 46.0426 1.32122C46.0426 0.591469 45.451 0 44.7214 0C43.9917 0 43.4002 0.591469 43.4002 1.32122C43.4002 1.42191 43.4124 1.5195 43.4337 1.61372L36.5635 8.484C36.3244 8.72325 36.1927 9.04125 36.1927 9.37941V10.3968C35.3001 10.359 34.4825 10.2769 33.7353 10.1612V6.79669L37.9234 2.60878C38.0176 2.63016 38.1153 2.64244 38.216 2.64244C38.9456 2.64244 39.5372 2.05087 39.5372 1.32122C39.5372 0.591563 38.9456 0 38.216 0C37.4863 0 36.8947 0.591469 36.8947 1.32122C36.8947 1.42191 36.907 1.5195 36.9283 1.61381L32.6988 5.84334C32.4598 6.0825 32.3282 6.4005 32.3282 6.73866V9.88828C31.2462 9.63262 30.3463 9.30825 29.606 8.96588V2.43806C29.9767 2.20406 30.2236 1.79194 30.2236 1.32113C30.2238 0.591469 29.6322 0 28.9026 0C28.1729 0 27.5813 0.591469 27.5813 1.32122C27.5813 1.79194 27.8283 2.20416 28.199 2.43816V8.18766C27.6488 7.82409 27.2607 7.48491 27.0104 7.2345C26.6621 6.88631 26.335 6.50719 26.0379 6.10744C25.6042 5.52403 24.9384 5.18841 24.2113 5.18672C24.2094 5.18672 24.2077 5.18672 24.2057 5.18672C23.4785 5.18672 22.8109 5.52038 22.3737 6.10275C22.0774 6.49734 21.7465 6.87806 21.3901 7.2345C21.0505 7.57406 20.5671 7.98084 19.9058 8.38837V2.43806C20.2765 2.20406 20.5235 1.79194 20.5235 1.32113C20.5236 0.591469 19.9321 0 19.2023 0C18.4727 0 17.8811 0.591469 17.8811 1.32122C17.8811 1.79194 18.1281 2.20416 18.4988 2.43816V9.1155C17.7183 9.45178 16.7842 9.75778 15.6713 9.98887V6.73856C15.6713 6.40031 15.5395 6.08241 15.3004 5.84306L11.0711 1.61391C11.0925 1.51969 11.1048 1.422 11.1048 1.32131C11.1048 0.591656 10.5132 9.375e-05 9.78356 9.375e-05C9.05391 9.375e-05 8.46234 0.591563 8.46234 1.32131C8.46234 2.05097 9.05391 2.64253 9.78356 2.64253C9.88425 2.64253 9.98194 2.63025 10.0762 2.60887L14.2642 6.79688V10.2247C13.5135 10.3231 12.6967 10.3889 11.8068 10.4119V9.3795C11.8068 9.04125 11.6751 8.72325 11.4359 8.48409L4.56581 1.61381C4.58719 1.51959 4.59947 1.42191 4.59947 1.32122C4.59947 0.591469 4.00791 0 3.27825 0C2.54859 0 1.95703 0.591469 1.95703 1.32122C1.95703 2.05087 2.54859 2.64244 3.27825 2.64244C3.37894 2.64244 3.47662 2.63016 3.57084 2.60878L10.3999 9.43781V10.4272L9.38972 10.4345C8.53256 10.4406 7.83516 11.143 7.83516 12.0003V12.9405C7.83516 13.3291 8.15016 13.644 8.53866 13.644C8.92716 13.644 9.24216 13.3291 9.24216 12.9405V12.0003C9.24216 11.9134 9.31284 11.8421 9.39975 11.8416L11.3062 11.8277C14.9972 11.8008 17.6241 11.0832 19.4513 10.225C19.4905 10.2101 19.5279 10.1919 19.5635 10.1707C20.9186 9.51806 21.8223 8.79216 22.3851 8.22937C22.7882 7.82625 23.1629 7.39491 23.4989 6.94744C23.6677 6.72253 23.9253 6.59363 24.2058 6.59363H24.2079C24.4868 6.59428 24.7424 6.723 24.9086 6.94669C25.2464 7.40128 25.6188 7.83272 26.0153 8.22937C27.0808 9.29475 30.2932 11.7782 37.0943 11.8277L39.0007 11.8416C39.0876 11.8422 39.1583 11.9134 39.1583 12.0003V22.4709C39.1583 25.0672 38.5548 27.6721 37.4128 30.0039C37.168 30.5038 36.8942 30.9991 36.5989 31.4757C36.3942 31.806 36.496 32.2396 36.8263 32.4442C36.9417 32.5158 37.0697 32.5499 37.1962 32.5499C37.4317 32.5499 37.6618 32.4317 37.7949 32.2168C38.1147 31.7007 38.4114 31.1644 38.6766 30.6228C39.1737 29.6076 39.5749 28.5441 39.8788 27.4531L41.3935 28.5981V38.5312C41.0228 38.7653 40.7759 39.1774 40.7759 39.6481C40.7759 40.3778 41.3674 40.9693 42.0971 40.9693C42.8268 40.9693 43.4183 40.3778 43.4183 39.6481C43.4183 39.1773 43.1713 38.7652 42.8006 38.5312V28.5279C42.8006 28.1333 42.6127 27.7557 42.2978 27.5177L40.2307 25.9551C40.4511 24.8065 40.5654 23.638 40.5654 22.4708V21.919L45.1514 25.5716V28.8646C44.7807 29.0986 44.5338 29.5107 44.5338 29.9815C44.5338 30.7112 45.1252 31.3027 45.855 31.3027C46.5847 31.3027 47.1762 30.7112 47.1762 29.9815C47.1762 29.5107 46.9292 29.0986 46.5585 28.8646Z" fill="#FFB000"/>
<path d="M36.2161 45.562V38.9618C36.2161 38.6236 36.0844 38.3057 35.8453 38.0663L34.2149 36.4359C34.8575 35.8743 35.465 35.2662 36.0273 34.6179C36.2819 34.3244 36.2503 33.88 35.9568 33.6255C35.6634 33.371 35.219 33.4026 34.9644 33.696C34.2284 34.5447 33.4102 35.3204 32.5325 36.0016L26.261 40.869C25.6742 41.3243 24.9425 41.5752 24.2006 41.5752C23.448 41.5752 22.7354 41.331 22.1401 40.869L15.8686 36.0016C13.8175 34.4095 12.1298 32.3356 10.9879 30.0039C9.84604 27.6723 9.24239 25.0674 9.24239 22.471V16.0724C9.24239 15.6838 8.92739 15.3689 8.53889 15.3689C8.15039 15.3689 7.83539 15.6838 7.83539 16.0724V19.8012L1.91882 24.5135C1.61536 24.7551 1.44136 25.1162 1.44136 25.504V28.8648C1.07067 29.0988 0.82373 29.5109 0.82373 29.9817C0.82373 30.7114 1.41529 31.3029 2.14495 31.3029C2.87461 31.3029 3.43486 30.7114 3.43486 29.9817C3.43486 29.5148 3.20479 29.1054 2.84845 28.8704V25.5718L7.83539 21.5999V22.471C7.83539 23.5484 7.93223 24.6269 8.12039 25.6897L5.70182 27.518C5.3872 27.7561 5.19932 28.1336 5.19932 28.528V38.5312C4.82864 38.7652 4.5817 39.1774 4.5817 39.6482C4.5817 40.3778 5.17326 40.9694 5.90292 40.9694C6.63257 40.9694 7.19282 40.3778 7.19282 39.6482C7.19282 39.1813 6.96276 38.7719 6.60642 38.5369V28.5981L8.45273 27.2024C8.76361 28.3814 9.18914 29.5298 9.72435 30.6228C10.7626 32.7428 12.2191 34.6647 13.9743 36.2471L12.155 38.0663C11.9159 38.3055 11.7841 38.6236 11.7841 38.9618V45.562C11.4134 45.796 11.1665 46.2081 11.1665 46.679C11.1665 47.4086 11.7581 48.0002 12.4877 48.0002C13.2174 48.0002 13.8089 47.4086 13.8089 46.679C13.8089 46.2081 13.562 45.796 13.1913 45.562V39.0201L15.0581 37.1534L21.2776 41.9805C22.1099 42.6265 23.148 42.9822 24.2007 42.9822C25.2533 42.9822 26.2915 42.6265 27.1238 41.9805L33.1176 37.3286L34.8092 39.0201V45.5619C34.4385 45.7959 34.1915 46.2081 34.1915 46.6789C34.1915 47.4085 34.7831 48.0001 35.5127 48.0001C36.2424 48.0001 36.8339 47.4085 36.8339 46.6789C36.8338 46.2081 36.5868 45.796 36.2161 45.562Z" fill="#FFB000"/>
<path d="M24.2006 40.4542C24.6458 40.4542 25.0067 40.0933 25.0067 39.6481C25.0067 39.2029 24.6458 38.842 24.2006 38.842C23.7554 38.842 23.3945 39.2029 23.3945 39.6481C23.3945 40.0933 23.7554 40.4542 24.2006 40.4542Z" fill="#FFB000"/>
<path d="M25.0067 9.27933C25.0067 8.8342 24.6458 8.47327 24.2006 8.47327C23.7554 8.47327 23.3945 8.83411 23.3945 9.27933C23.3945 9.72445 23.7554 10.0854 24.2006 10.0854C24.6458 10.0854 25.0067 9.72455 25.0067 9.27933Z" fill="#FFB000"/>
<path d="M37.14 14.8342C37.5852 14.8342 37.9461 14.4733 37.9461 14.0281C37.9461 13.5829 37.5852 13.222 37.14 13.222C36.6949 13.222 36.334 13.5829 36.334 14.0281C36.334 14.4733 36.6949 14.8342 37.14 14.8342Z" fill="#FFB000"/>
<path d="M11.1645 14.8342C11.6096 14.8342 11.9705 14.4733 11.9705 14.0281C11.9705 13.5829 11.6096 13.222 11.1645 13.222C10.7193 13.222 10.3584 13.5829 10.3584 14.0281C10.3584 14.4733 10.7193 14.8342 11.1645 14.8342Z" fill="#FFB000"/>
<path d="M17.0907 27.5754C16.7021 27.5754 16.3872 27.8903 16.3872 28.2789V31.4165C16.3872 32.706 17.4363 33.755 18.7257 33.755H29.6751C30.9646 33.755 32.0135 32.706 32.0135 31.4165V24.2834C32.0135 23.3095 31.415 22.4731 30.5665 22.1219V19.4984C30.5665 15.8763 27.6199 12.9297 23.9978 12.9297C20.3758 12.9297 17.4291 15.8763 17.4291 19.4984V22.3384C16.8015 22.7583 16.3872 23.4733 16.3872 24.2835V24.9424C16.3872 25.331 16.7022 25.6459 17.0907 25.6459C17.4792 25.6459 17.7942 25.331 17.7942 24.9424V24.2835C17.7942 23.7698 18.212 23.352 18.7256 23.352H29.675C30.1886 23.352 30.6065 23.7698 30.6065 24.2835V31.4166C30.6065 31.9303 30.1886 32.348 29.675 32.348H18.7256C18.212 32.348 17.7942 31.9302 17.7942 31.4166V28.279C17.7942 27.8903 17.4792 27.5754 17.0907 27.5754ZM23.9977 14.3367C26.8439 14.3367 29.1594 16.6522 29.1594 19.4984V21.9449H27.9V19.4984C27.9 17.3466 26.1495 15.5961 23.9977 15.5961C21.8461 15.5961 20.0955 17.3466 20.0955 19.4984V21.9449H18.8361V19.4984C18.8361 16.6522 21.1516 14.3367 23.9977 14.3367ZM26.493 21.9449H21.5027V19.4984C21.5027 18.1225 22.622 17.0032 23.9978 17.0032C25.3736 17.0032 26.493 18.1226 26.493 19.4984V21.9449Z" fill="#FFB000"/>
<path d="M23.8807 30.4963H24.6851C24.7874 30.4963 24.8704 30.4134 24.8704 30.3111V28.9183C24.8704 28.8704 24.897 28.8255 24.9404 28.8053C25.4702 28.5576 25.8374 28.0202 25.8374 27.3967C25.8374 26.5052 25.087 25.7891 24.1834 25.8454C23.4108 25.8936 22.7816 26.5213 22.7318 27.2937C22.6889 27.9595 23.0655 28.5421 23.6228 28.804C23.6665 28.8245 23.6956 28.867 23.6956 28.9153V30.3111C23.6955 30.4134 23.7785 30.4963 23.8807 30.4963Z" fill="#FFB000"/>
</g>
<defs>
<clipPath id="clip0">
<rect width="48" height="48" fill="white"/>
</clipPath>
</defs>
</svg>
