<svg width="48" height="48" viewBox="0 0 48 48" fill="none" xmlns="http://www.w3.org/2000/svg">
<path d="M45.75 30.75H32.25C32.0511 30.75 31.8603 30.829 31.7197 30.9697C31.579 31.1103 31.5 31.3011 31.5 31.5V34.9393L24.8787 28.3181C24.4618 27.8989 23.9659 27.5665 23.4198 27.3403C22.8736 27.114 22.2879 26.9984 21.6967 27H19.4428C19.9723 26.0889 20.2508 25.0538 20.25 24V19.5H24V18H20.7906L19.2243 13.3012C19.0257 12.7036 18.6438 12.1837 18.1329 11.8155C17.622 11.4473 17.0081 11.2494 16.3783 11.25H12.1217C11.4919 11.2494 10.878 11.4473 10.3671 11.8155C9.85617 12.1837 9.47428 12.7036 9.27567 13.3012L7.70943 18H4.5V19.5H8.25V24C8.24918 25.0538 8.5277 26.0889 9.0572 27H7.5C5.90925 27.0018 4.38417 27.6345 3.25934 28.7593C2.13451 29.8842 1.5018 31.4093 1.5 33V46.5H3V33C3.00136 31.8069 3.4759 30.6631 4.31952 29.8195C5.16314 28.9759 6.30694 28.5014 7.5 28.5H10.2877C11.3813 29.4665 12.7905 30 14.25 30C15.7095 30 17.1187 29.4665 18.2123 28.5H21.6967C22.0908 28.4989 22.4813 28.576 22.8454 28.7268C23.2095 28.8777 23.5401 29.0992 23.818 29.3787L31.5 37.0607V42H30.3107L30.5303 41.7804C30.6416 41.669 30.7151 41.5255 30.7403 41.3701C30.7655 41.2147 30.7412 41.0554 30.6708 40.9146L29.2599 38.0927C28.8747 37.3223 28.2382 36.7062 27.4557 36.3463C26.6731 35.9864 25.7911 35.9041 24.9555 36.1131L23.9301 36.3694L20.7803 33.2196C20.6754 33.1148 20.5418 33.0434 20.3963 33.0144C20.2508 32.9855 20.1 33.0004 19.963 33.0571C19.826 33.1139 19.7088 33.21 19.6264 33.3333C19.544 33.4567 19.5 33.6017 19.5 33.75V37.477L13.7301 38.9194L9.53032 34.7196L8.46968 35.7804L12.9697 40.2804C13.0612 40.372 13.175 40.4383 13.2998 40.4728C13.4246 40.5074 13.5563 40.509 13.6819 40.4776L22.0081 38.396L23.1327 41.77L17.0534 44.3754C15.6343 44.9836 14.0656 45.1526 12.5495 44.8606C11.0335 44.5686 9.63974 43.8291 8.54805 42.7374L5.03032 39.2196L3.96968 40.2804L7.48741 43.7981C8.7911 45.1018 10.4555 45.9849 12.2659 46.3336C14.0763 46.6822 15.9497 46.4804 17.6443 45.7541L21.0017 44.3153C21.0192 44.9002 21.2637 45.4552 21.6833 45.863C22.103 46.2708 22.6649 46.4993 23.25 46.5H45.75C45.9489 46.5 46.1397 46.421 46.2803 46.2803C46.421 46.1397 46.5 45.9489 46.5 45.75V31.5C46.5 31.3011 46.421 31.1103 46.2803 30.9697C46.1397 30.829 45.9489 30.75 45.75 30.75ZM9.75 24V23.121C9.99081 23.2065 10.2445 23.2501 10.5 23.25H12.75C12.8893 23.25 13.0258 23.2112 13.1443 23.138C13.2628 23.0648 13.3585 22.96 13.4208 22.8355L13.8354 22.0063C13.8739 21.9293 13.9331 21.8645 14.0063 21.8192C14.0795 21.774 14.1639 21.75 14.25 21.75C14.3361 21.75 14.4205 21.774 14.4937 21.8192C14.5669 21.8645 14.6261 21.9293 14.6646 22.0063L15.0792 22.8355C15.1415 22.96 15.2372 23.0648 15.3557 23.138C15.4742 23.2112 15.6107 23.25 15.75 23.25H18C18.2555 23.2501 18.5092 23.2065 18.75 23.121V24C18.7497 24.2513 18.7284 24.5022 18.6863 24.75H17.8713C17.5349 24.7509 17.2017 24.6851 16.8909 24.5564C16.58 24.4276 16.2979 24.2385 16.0606 24C15.8229 23.7622 15.5406 23.5736 15.2299 23.4449C14.9192 23.3162 14.5863 23.25 14.25 23.25C13.9137 23.25 13.5808 23.3162 13.2701 23.4449C12.9594 23.5736 12.6771 23.7622 12.4394 24C12.2021 24.2385 11.9199 24.4276 11.6091 24.5564C11.2983 24.6851 10.9651 24.7509 10.6287 24.75H9.81369C9.77158 24.5022 9.75027 24.2513 9.75 24ZM12.1217 12.75H16.3783C16.6932 12.7497 17.0002 12.8486 17.2556 13.0328C17.5111 13.2169 17.702 13.4768 17.8013 13.7757L18.2094 15H10.2906L10.6987 13.7757C10.798 13.4768 10.9889 13.2169 11.2444 13.0328C11.4998 12.8486 11.8068 12.7497 12.1217 12.75ZM9.79056 16.5H18.7094L19.2094 18H9.29057L9.79056 16.5ZM9.75 19.5H18.75V21C18.7498 21.1988 18.6707 21.3895 18.5301 21.5301C18.3895 21.6707 18.1988 21.7498 18 21.75H16.2135L16.0062 21.3354C15.8431 21.0092 15.5924 20.7349 15.2823 20.5432C14.9721 20.3515 14.6146 20.25 14.25 20.25C13.8854 20.25 13.5279 20.3515 13.2177 20.5432C12.9076 20.7349 12.6569 21.0092 12.4938 21.3354L12.2865 21.75H10.5C10.3012 21.7498 10.1105 21.6707 9.96992 21.5301C9.82932 21.3895 9.75023 21.1988 9.75 21V19.5ZM14.25 28.5C13.4605 28.4994 12.6851 28.2912 12.0015 27.8963C11.318 27.5014 10.7503 26.9336 10.3554 26.25H10.6287C11.1621 26.2515 11.6906 26.1471 12.1835 25.943C12.6763 25.7388 13.1238 25.439 13.5 25.0607C13.5985 24.9622 13.7154 24.8841 13.8441 24.8308C13.9728 24.7774 14.1107 24.75 14.25 24.75C14.3893 24.75 14.5272 24.7774 14.6559 24.8308C14.7846 24.8841 14.9015 24.9622 15 25.0607C15.3762 25.439 15.8237 25.7388 16.3165 25.943C16.8094 26.1471 17.3379 26.2515 17.8713 26.25H18.1446C17.7497 26.9336 17.182 27.5014 16.4985 27.8963C15.8149 28.2912 15.0395 28.4994 14.25 28.5ZM21 35.5606L22.233 36.7937L21 37.102V35.5606ZM23.4676 38.0312L25.3191 37.5683C25.8237 37.4421 26.3563 37.4918 26.8288 37.7091C27.3014 37.9264 27.6857 38.2984 27.9183 38.7636L29.0874 41.1019L28.4044 41.7849L26.666 40.626C26.5622 40.5568 26.4428 40.5146 26.3186 40.5032C26.1943 40.4918 26.0692 40.5115 25.9546 40.5606L24.5162 41.177L23.4676 38.0312ZM22.5 44.25V43.6731L22.904 43.5H31.5V45H23.25C23.0512 44.9998 22.8605 44.9207 22.7199 44.7801C22.5793 44.6395 22.5002 44.4488 22.5 44.25ZM45 45H33V32.25H45V45Z" fill="#FFB000"/>
<path d="M39 40.5C39.445 40.5 39.88 40.368 40.25 40.1208C40.62 39.8736 40.9084 39.5222 41.0787 39.111C41.249 38.6999 41.2936 38.2475 41.2068 37.8111C41.12 37.3746 40.9057 36.9737 40.591 36.659C40.2763 36.3443 39.8754 36.1301 39.439 36.0432C39.0025 35.9564 38.5501 36.001 38.139 36.1713C37.7278 36.3416 37.3764 36.63 37.1292 37C36.882 37.37 36.75 37.805 36.75 38.25C36.7507 38.8465 36.9879 39.4184 37.4098 39.8403C37.8316 40.2621 38.4035 40.4993 39 40.5ZM39 37.5C39.1483 37.5 39.2933 37.544 39.4167 37.6264C39.54 37.7088 39.6361 37.8259 39.6929 37.963C39.7497 38.1 39.7645 38.2508 39.7356 38.3963C39.7067 38.5418 39.6352 38.6754 39.5303 38.7803C39.4254 38.8852 39.2918 38.9567 39.1463 38.9856C39.0008 39.0145 38.85 38.9997 38.713 38.9429C38.5759 38.8861 38.4588 38.79 38.3764 38.6667C38.294 38.5433 38.25 38.3983 38.25 38.25C38.2502 38.0512 38.3293 37.8605 38.4699 37.7199C38.6105 37.5793 38.8012 37.5002 39 37.5Z" fill="#FFB000"/>
<path d="M30 21C30 21.445 30.132 21.88 30.3792 22.25C30.6264 22.62 30.9778 22.9084 31.389 23.0787C31.8001 23.249 32.2525 23.2936 32.689 23.2068C33.1254 23.1199 33.5263 22.9057 33.841 22.591C34.1557 22.2763 34.37 21.8754 34.4568 21.439C34.5436 21.0025 34.499 20.5501 34.3287 20.139C34.1584 19.7278 33.87 19.3764 33.5 19.1292C33.13 18.882 32.695 18.75 32.25 18.75C31.6535 18.7507 31.0816 18.9879 30.6598 19.4098C30.2379 19.8316 30.0007 20.4035 30 21ZM33 21C33 21.1483 32.956 21.2933 32.8736 21.4167C32.7912 21.54 32.6741 21.6361 32.537 21.6929C32.4 21.7497 32.2492 21.7645 32.1037 21.7356C31.9582 21.7066 31.8246 21.6352 31.7197 21.5303C31.6148 21.4254 31.5434 21.2918 31.5144 21.1463C31.4855 21.0008 31.5003 20.85 31.5571 20.713C31.6139 20.5759 31.71 20.4588 31.8333 20.3764C31.9567 20.294 32.1017 20.25 32.25 20.25C32.4488 20.2502 32.6395 20.3293 32.7801 20.4699C32.9207 20.6105 32.9998 20.8012 33 21Z" fill="#FFB000"/>
<path d="M35.08 9.27447C35.0097 9.18866 34.9211 9.11953 34.8209 9.07207C34.7206 9.02461 34.611 8.99999 34.5 9H30C29.889 9 29.7795 9.02462 29.6792 9.07209C29.5789 9.11957 29.4903 9.1887 29.42 9.27452C29.3496 9.36034 29.2992 9.4607 29.2723 9.56836C29.2455 9.67603 29.2428 9.78831 29.2646 9.89713L30.7646 17.3971C30.7986 17.5671 30.8904 17.7201 31.0245 17.83C31.1586 17.9399 31.3266 18 31.5 18H33C33.1734 18 33.3414 17.9399 33.4755 17.83C33.6096 17.7201 33.7014 17.5671 33.7355 17.3971L35.2355 9.89713C35.2572 9.7883 35.2546 9.67601 35.2277 9.56834C35.2008 9.46067 35.1504 9.3603 35.08 9.27447ZM32.3851 16.5H32.1149L30.9149 10.5H33.5852L32.3851 16.5Z" fill="#FFB000"/>
<path d="M35.3538 3.20096C35.0695 2.68571 34.6523 2.25612 34.1455 1.95695C33.6387 1.65779 33.061 1.49999 32.4725 1.5C31.884 1.50001 31.3063 1.65783 30.7995 1.95701C30.2928 2.25619 29.8755 2.68579 29.5912 3.20105L22.5933 15.885L23.9066 16.6095L30.9046 3.9256C31.0594 3.64522 31.2864 3.41146 31.5622 3.24867C31.838 3.08587 32.1523 3 32.4726 3C32.7928 3 33.1072 3.08587 33.383 3.24867C33.6587 3.41146 33.8858 3.64522 34.0405 3.9256L45.0932 23.9588C45.1805 24.117 45.225 24.2953 45.2224 24.476C45.2198 24.6566 45.1701 24.8335 45.0782 24.9891C44.9864 25.1447 44.8555 25.2737 44.6986 25.3633C44.5416 25.4529 44.3641 25.5 44.1834 25.5H25.4999V27H44.1834C44.6249 27 45.0588 26.8849 45.4423 26.666C45.8257 26.4471 46.1454 26.132 46.3699 25.7518C46.5944 25.3715 46.7158 24.9394 46.7223 24.4979C46.7287 24.0564 46.6199 23.6208 46.4066 23.2342L35.3538 3.20096Z" fill="#FFB000"/>
</svg>
