<svg width="48" height="48" viewBox="0 0 48 48" fill="none" xmlns="http://www.w3.org/2000/svg">
<path d="M35.29 6.14638L21.8113 1.6535L7.61597 6.38535V11.3893H9.02147V7.39822L21.0149 3.38478V9.8901H22.4204V3.35356L34.5075 7.38275V16.3954L21.7879 12.1478L16.942 13.7669C15.2646 12.7635 13.3103 12.1858 11.2175 12.1858C5.04338 12.1858 0 17.2086 0 23.3827C0 28.5524 3.58688 32.9142 8.27184 34.1968V46.6199H14.1748V34.1713C17.1731 33.3519 19.6093 31.3565 21.0148 28.7248V33.386L16.2716 34.9749L16.7278 36.3082L21.8053 34.6176L35.3147 39.1198L48 34.3638V1.38013L35.29 6.14638ZM12.7693 45.2144H9.67725V34.479C10.2395 34.545 10.6681 34.5796 11.1764 34.5796C11.7172 34.5796 12.3007 34.5403 12.7693 34.4658V45.2144ZM11.2233 33.1742C5.82431 33.1742 1.43175 28.7818 1.43175 23.3827C1.43175 17.9837 5.82422 13.5912 11.2233 13.5912C13.2635 13.5912 15.1597 14.2187 16.7298 15.2905L16.7395 15.3197L16.7614 15.3124C19.3282 17.0795 21.0148 20.0376 21.0148 23.3827C21.0148 28.7818 16.6223 33.1742 11.2233 33.1742ZM21.0148 18.0405C20.3589 16.7883 19.4172 15.6805 18.3286 14.7744L21.0148 13.879V18.0405ZM34.5074 37.3838L22.4203 33.3549V24.3421L34.5074 28.3711V37.3838ZM46.5945 33.3899L35.9128 37.378V28.3849L46.5945 24.3968V33.3899ZM46.5945 22.8957L35.9128 26.8838V20.3844H34.5073V26.8896L22.4203 22.8605V13.8478L35.2943 18.1313L46.5945 13.9025V22.8957ZM46.5945 12.4014L35.9128 16.3895V7.39635L46.5945 3.40822V12.4014Z" fill="#FFB000"/>
<path d="M15.0182 9.23401H13.519V10.6395H15.0182V9.23401Z" fill="#FFB000"/>
<path d="M45.0016 16.7299H43.5024V18.1354H45.0016V16.7299Z" fill="#FFB000"/>
<path d="M28.5104 31.7217H27.0112V33.1272H28.5104V31.7217Z" fill="#FFB000"/>
<path d="M11.223 15.184C9.09051 15.184 7.07048 15.9986 5.53513 17.4778L6.51032 18.4901C7.78241 17.2645 9.45604 16.5895 11.2229 16.5895C14.9687 16.5895 18.0161 19.6368 18.0161 23.3826C18.0161 27.1284 14.9687 30.1757 11.2229 30.1757C7.47716 30.1757 4.42982 27.1284 4.42982 23.3826C4.42982 22.4376 4.61985 21.5234 4.99476 20.6656L3.70701 20.1028C3.2541 21.1392 3.02441 22.2427 3.02441 23.3826C3.02441 27.9034 6.70223 31.5812 11.223 31.5812C15.7439 31.5812 19.4217 27.9034 19.4217 23.3826C19.4217 18.8619 15.7439 15.184 11.223 15.184Z" fill="#FFB000"/>
</svg>
