<svg width="32" height="32" viewBox="0 0 32 32" fill="none" xmlns="http://www.w3.org/2000/svg">
<g opacity="0.5" clip-path="url(#clip0)">
<path d="M7.27269 1.91C8.076 1.91 8 1.91 8.72731 1.91H30.09V23.2728C30.09 23.7292 30.09 23.9241 30.09 24.7274C30.09 25.5307 30.1967 26.1819 31 26.1819C31.8033 26.1819 32 25.5306 32 24.7273V1.45457C32 0.651325 31.3487 7.43866e-05 30.5454 7.43866e-05H7.27269C6.46937 7.43866e-05 5.81812 0.0466881 5.81812 0.85V1C5.81819 1.80331 6.46937 1.91 7.27269 1.91Z" fill="#1E1E1E"/>
<path d="M9.72332 7.56607C9.16476 7.59009 8.73031 8.06294 8.7547 8.62184C8.77874 9.18111 9.25192 9.61448 9.81084 9.59081L20.5135 9.108L6.46507 23.6897C6.07697 24.0926 6.08893 24.7345 6.49176 25.1226C6.89459 25.5107 7.53649 25.4987 7.92459 25.0959L21.9505 10.5375L21.8895 21.2277C21.8863 21.7875 22.3373 22.2438 22.8971 22.247C23.1856 22.2484 23.4468 22.1293 23.6324 21.9366C23.8067 21.7556 23.9143 21.5103 23.9157 21.2394L23.9853 9.03007C23.9756 8.48881 23.7555 7.98408 23.3655 7.60829C22.9754 7.2325 22.4628 7.03134 21.8969 7.04261L9.72332 7.56607Z" fill="#1E1E1E"/>
</g>
<defs>
<clipPath id="clip0">
<rect width="32" height="32" fill="white"/>
</clipPath>
</defs>
</svg>
