<svg width="48" height="48" viewBox="0 0 48 48" fill="none" xmlns="http://www.w3.org/2000/svg">
<path d="M44.5109 35.7037C43.1669 34.4894 41.6259 34.7677 40.4906 35.3672V21.6555C44.854 20.1595 48.0001 16.0042 48.0001 11.1248C48.0001 4.99036 43.0273 0 36.9153 0C30.8029 0 25.8301 4.99036 25.8301 11.1248C25.8301 17.2592 30.8029 22.2499 36.9153 22.2499C37.6576 22.2499 38.3827 22.1755 39.0847 22.0353V36.7313C39.0847 37.0144 39.2543 37.27 39.515 37.3795C39.7761 37.4894 40.0775 37.4319 40.2797 37.2338C40.2844 37.229 40.7803 36.754 41.4585 36.468C42.2847 36.1198 42.9746 36.2109 43.5682 36.7471C44.4779 37.5692 44.5724 38.9235 43.7832 39.8306L38.549 45.8489C38.137 46.3224 37.5422 46.5938 36.9164 46.5938C36.2909 46.5938 35.6962 46.322 35.2842 45.8489L30.0499 39.8306C29.2673 38.9312 29.3622 37.5498 30.2609 36.7511C31.6913 35.4792 33.4817 37.1649 33.5557 37.236C33.7582 37.4326 34.0588 37.489 34.3192 37.3792C34.5792 37.2689 34.7484 37.014 34.7484 36.7313V24.1776C34.7484 23.7891 34.4338 23.4745 34.0453 23.4745C33.6571 23.4745 33.3422 23.7891 33.3422 24.1776V35.3738C32.2098 34.7809 30.6718 34.504 29.3267 35.7001C27.8545 37.0085 27.7029 39.2754 28.9886 40.7534L34.2233 46.7717C34.9022 47.5525 35.884 48 36.9164 48C37.9491 48 38.9309 47.5525 39.6099 46.7717L44.8445 40.7534C46.1412 39.2626 45.9948 37.0444 44.5109 35.7037ZM27.2363 11.1248C27.2363 5.76599 31.5781 1.40625 36.9153 1.40625C42.2521 1.40625 46.5939 5.76599 46.5939 11.1248C46.5939 16.4839 42.2521 20.8436 36.9153 20.8436C31.5781 20.8436 27.2363 16.4839 27.2363 11.1248Z" fill="#FFB000"/>
<path d="M14.6609 26.3445V12.6328C15.7958 13.2319 17.3368 13.5103 18.6808 12.2963C20.1647 10.9556 20.3112 8.73743 19.0144 7.24658L13.7798 1.22827C13.1008 0.44751 12.119 0 11.0867 0C10.0536 0 9.07214 0.44751 8.39319 1.22827L3.15857 7.24658C1.8728 8.72461 2.02441 10.9915 3.49658 12.2999C4.84167 13.4956 6.37976 13.2191 7.51208 12.6262V26.3434C3.14758 27.8386 0 31.9948 0 36.8752C0 39.3948 0.818481 41.7711 2.36755 43.7476C2.60706 44.053 3.04907 44.1068 3.35449 43.8669C3.66028 43.6274 3.71375 43.1858 3.47424 42.88C2.12146 41.1537 1.40625 39.0773 1.40625 36.8752C1.40625 31.5161 5.74805 27.1564 11.0848 27.1564C16.422 27.1564 20.7638 31.5161 20.7638 36.8752C20.7638 42.234 16.422 46.5938 11.0848 46.5938C9.08789 46.5938 7.17114 45.9884 5.5415 44.8429C5.224 44.6195 4.78528 44.696 4.56189 45.0135C4.33887 45.3314 4.41541 45.7701 4.73291 45.9932C6.60059 47.306 8.79712 48 11.0848 48C17.1973 48 22.17 43.0096 22.17 36.8752C22.17 31.9958 19.0239 27.8405 14.6609 26.3445ZM8.91833 25.964V11.2687C8.91833 10.986 8.74915 10.7311 8.48914 10.6208C8.22876 10.5106 7.9281 10.5674 7.72559 10.764C7.72046 10.7688 7.22607 11.2386 6.54822 11.5221C5.72021 11.8689 5.02734 11.7795 4.43079 11.2489C3.5321 10.4502 3.43726 9.06885 4.21948 8.16943L9.4541 2.15112C9.86572 1.67761 10.4608 1.40625 11.0867 1.40625C11.7122 1.40625 12.3069 1.67761 12.7189 2.15112L17.9535 8.16943C18.7423 9.07654 18.6478 10.4308 17.7382 11.2529C16.3143 12.5387 14.5236 10.8376 14.4496 10.7662C14.2474 10.5685 13.946 10.5106 13.6853 10.6205C13.4242 10.73 13.2546 10.9856 13.2546 11.2687V25.9647C12.5526 25.8245 11.8275 25.7501 11.0848 25.7501C10.3436 25.7501 9.61926 25.8241 8.91833 25.964Z" fill="#FFB000"/>
<path d="M11.0848 30.2527C9.70532 30.2527 8.58289 31.3781 8.58289 32.7616V34.366H6.9873C5.60779 34.366 4.48535 35.4917 4.48535 36.8752C4.48535 38.2588 5.60779 39.3842 6.9873 39.3842H8.58289V40.9885C8.58289 42.3721 9.70532 43.4974 11.0848 43.4974C12.4647 43.4974 13.5872 42.3721 13.5872 40.9885V39.3842H15.1827C16.5623 39.3842 17.6847 38.2588 17.6847 36.8752C17.6847 35.4917 16.5623 34.366 15.1827 34.366H13.5872V32.7616C13.5872 31.3781 12.4647 30.2527 11.0848 30.2527ZM15.1827 35.7722C15.787 35.7722 16.2784 36.267 16.2784 36.8752C16.2784 37.4832 15.787 37.9779 15.1827 37.9779H12.884C12.4955 37.9779 12.1809 38.2925 12.1809 38.681V40.9885C12.1809 41.5964 11.6891 42.0912 11.0848 42.0912C10.4806 42.0912 9.98914 41.5968 9.98914 40.9885V38.681C9.98914 38.2925 9.67419 37.9779 9.28601 37.9779H6.9873C6.38306 37.9779 5.8916 37.4832 5.8916 36.8752C5.8916 36.267 6.38306 35.7722 6.9873 35.7722H9.28601C9.67419 35.7722 9.98914 35.4576 9.98914 35.0691V32.7616C9.98914 32.1537 10.4806 31.6589 11.0848 31.6589C11.6891 31.6589 12.1809 32.1537 12.1809 32.7616V35.0691C12.1809 35.4576 12.4955 35.7722 12.884 35.7722H15.1827Z" fill="#FFB000"/>
<path d="M41.0092 8.61584H32.821C31.4393 8.61584 30.3154 9.73975 30.3154 11.1284C30.3154 12.5098 31.4393 13.634 32.821 13.634H38.0839C38.472 13.634 38.787 13.3191 38.787 12.9309C38.787 12.5424 38.472 12.2278 38.0839 12.2278H32.821C32.2146 12.2278 31.7217 11.7345 31.7217 11.1215C31.7217 10.5154 32.2146 10.0221 32.821 10.0221H41.0092C41.6156 10.0221 42.1085 10.5154 42.1085 11.1284C42.1085 11.7345 41.6156 12.2278 41.0092 12.2278C40.621 12.2278 40.306 12.5424 40.306 12.9309C40.306 13.3191 40.621 13.634 41.0092 13.634C42.3909 13.634 43.5148 12.5098 43.5148 11.1215C43.5148 9.73975 42.3909 8.61584 41.0092 8.61584Z" fill="#FFB000"/>
</svg>
