<svg width="48" height="48" viewBox="0 0 48 48" fill="none" xmlns="http://www.w3.org/2000/svg">
<path d="M25.5 10.5H33C33.1989 10.5 33.3897 10.421 33.5303 10.2803C33.671 10.1397 33.75 9.94891 33.75 9.75C33.7474 7.56276 32.8774 5.46584 31.3308 3.91922C29.7842 2.3726 27.6872 1.50258 25.5 1.5C25.3011 1.5 25.1103 1.57902 24.9697 1.71967C24.829 1.86032 24.75 2.05109 24.75 2.25V9.75C24.75 9.94891 24.829 10.1397 24.9697 10.2803C25.1103 10.421 25.3011 10.5 25.5 10.5ZM26.25 3.04125C27.7708 3.2139 29.1882 3.89719 30.2705 4.9795C31.3528 6.06181 32.0361 7.47915 32.2087 9H26.25V3.04125Z" fill="#FFB000"/>
<path d="M37.0605 3H42V1.5H36.75C36.5511 1.50004 36.3603 1.57909 36.2197 1.71975L33.9697 3.96975L35.0302 5.03025L37.0605 3Z" fill="#FFB000"/>
<path d="M43.5 1.5H46.5V3H43.5V1.5Z" fill="#FFB000"/>
<path d="M12.9697 5.03025L14.0303 3.96975L11.7802 1.71975C11.6396 1.57909 11.4489 1.50004 11.25 1.5H6V3H10.9395L12.9697 5.03025Z" fill="#FFB000"/>
<path d="M1.5 1.5H4.5V3H1.5V1.5Z" fill="#FFB000"/>
<path d="M37.5 6H43.5V7.5H37.5V6Z" fill="#FFB000"/>
<path d="M45 6H46.5V7.5H45V6Z" fill="#FFB000"/>
<path d="M1.5 6H10.5V7.5H1.5V6Z" fill="#FFB000"/>
<path d="M19.1895 27.001H14.25V28.501H19.5C19.6989 28.5009 19.8896 28.4219 20.0303 28.2812L22.2803 26.0312L21.2197 24.9707L19.1895 27.001Z" fill="#FFB000"/>
<path d="M9.75 27H12.75V28.5H9.75V27Z" fill="#FFB000"/>
<path d="M9.75 22.5H18.75V24H9.75V22.5Z" fill="#FFB000"/>
<path d="M46.5 21.75C46.5019 19.9078 45.9814 18.1029 44.9988 16.5447C44.0163 14.9864 42.6119 13.7388 40.9489 12.9465C39.2858 12.1542 37.4321 11.8498 35.603 12.0686C33.7739 12.2874 32.0443 13.0204 30.615 14.1825C30.7019 13.7099 30.747 13.2305 30.75 12.75C30.75 12.5511 30.671 12.3603 30.5303 12.2197C30.3897 12.079 30.1989 12 30 12H23.25V5.25C23.25 5.05109 23.171 4.86032 23.0303 4.71967C22.8897 4.57902 22.6989 4.5 22.5 4.5C20.7063 4.50347 18.9624 5.09087 17.5322 6.17338C16.1019 7.25588 15.063 8.77464 14.5725 10.5H10.5C9.50544 10.5 8.55161 10.8951 7.84835 11.5983C7.14509 12.3016 6.75 13.2554 6.75 14.25V33.75C6.75 34.7446 7.14509 35.6984 7.84835 36.4016C8.55161 37.1049 9.50544 37.5 10.5 37.5H21V42H18.75C18.1538 42.0018 17.5825 42.2394 17.161 42.661C16.7394 43.0825 16.5018 43.6538 16.5 44.25V45.75C16.5 45.9489 16.579 46.1397 16.7197 46.2803C16.8603 46.421 17.0511 46.5 17.25 46.5H30.75C30.9489 46.5 31.1397 46.421 31.2803 46.2803C31.421 46.1397 31.5 45.9489 31.5 45.75V44.25C31.4982 43.6538 31.2606 43.0825 30.839 42.661C30.4175 42.2394 29.8462 42.0018 29.25 42H27V37.5H33V42.75C33 43.7446 33.3951 44.6984 34.0984 45.4016C34.8016 46.1049 35.7554 46.5 36.75 46.5C37.7446 46.5 38.6984 46.1049 39.4017 45.4016C40.1049 44.6984 40.5 43.7446 40.5 42.75V33.75C40.5 33.5511 40.421 33.3603 40.2803 33.2197C40.1397 33.079 39.9489 33 39.75 33H39V31.23C41.1327 30.7208 43.032 29.5089 44.3924 27.7894C45.7528 26.0698 46.4951 23.9426 46.5 21.75ZM21.75 6.045V12.75C21.75 12.9489 21.829 13.1397 21.9697 13.2803C22.1103 13.421 22.3011 13.5 22.5 13.5H29.205C29.0644 14.7636 28.5698 15.9618 27.7782 16.9566C26.9865 17.9515 25.93 18.7025 24.7302 19.1233C23.5305 19.544 22.2363 19.6174 20.9967 19.3349C19.7571 19.0524 18.6224 18.4256 17.7234 17.5266C16.8244 16.6276 16.1976 15.4929 15.9151 14.2533C15.6326 13.0137 15.706 11.7195 16.1267 10.5198C16.5475 9.32002 17.2985 8.2635 18.2934 7.47184C19.2882 6.68018 20.4864 6.18559 21.75 6.045ZM29.25 43.5C29.4489 43.5 29.6397 43.579 29.7803 43.7197C29.921 43.8603 30 44.0511 30 44.25V45H18V44.25C18 44.0511 18.079 43.8603 18.2197 43.7197C18.3603 43.579 18.5511 43.5 18.75 43.5H29.25ZM22.5 42V37.5H25.5V42H22.5ZM33.75 33C33.5511 33 33.3603 33.079 33.2197 33.2197C33.079 33.3603 33 33.5511 33 33.75V36H10.5C9.90381 35.9982 9.33255 35.7606 8.91098 35.339C8.48941 34.9175 8.25178 34.3462 8.25 33.75V33H31.5V31.5H8.25V14.25C8.25178 13.6538 8.48941 13.0825 8.91098 12.661C9.33255 12.2394 9.90381 12.0018 10.5 12H14.2875C14.265 12.2475 14.25 12.495 14.25 12.75C14.2485 14.2653 14.6649 15.7516 15.4532 17.0457C16.2415 18.3398 17.3713 19.3915 18.7185 20.0852C20.0656 20.7789 21.578 21.0879 23.0893 20.978C24.6006 20.8681 26.0523 20.3438 27.285 19.4625C27.0985 20.2108 27.0028 20.9788 27 21.75C27.0049 23.9426 27.7472 26.0698 29.1076 27.7894C30.468 29.5089 32.3673 30.7208 34.5 31.23V33H33.75ZM39 42.75C39 43.3467 38.7629 43.919 38.341 44.341C37.919 44.7629 37.3467 45 36.75 45C36.1533 45 35.581 44.7629 35.159 44.341C34.7371 43.919 34.5 43.3467 34.5 42.75V34.5H39V42.75ZM36 33V31.4625C36.2475 31.4775 36.495 31.5 36.75 31.5C37.005 31.5 37.2525 31.4775 37.5 31.4625V33H36ZM36.75 30C35.1183 30 33.5233 29.5161 32.1665 28.6096C30.8098 27.7031 29.7524 26.4146 29.128 24.9071C28.5036 23.3996 28.3402 21.7408 28.6585 20.1405C28.9769 18.5402 29.7626 17.0702 30.9164 15.9164C32.0702 14.7626 33.5402 13.9769 35.1405 13.6585C36.7409 13.3402 38.3997 13.5036 39.9071 14.128C41.4146 14.7524 42.7031 15.8098 43.6096 17.1665C44.5161 18.5233 45 20.1183 45 21.75C44.9986 23.9376 44.129 26.0352 42.5821 27.5821C41.0352 29.129 38.9376 29.9986 36.75 30Z" fill="#FFB000"/>
<path d="M36.75 15C35.415 15 34.1099 15.3959 32.9999 16.1376C31.8899 16.8793 31.0247 17.9335 30.5138 19.1669C30.0029 20.4003 29.8693 21.7575 30.1297 23.0669C30.3902 24.3762 31.033 25.579 31.977 26.523C32.921 27.467 34.1238 28.1099 35.4331 28.3703C36.7425 28.6308 38.0997 28.4971 39.3331 27.9862C40.5665 27.4753 41.6207 26.6101 42.3624 25.5001C43.1041 24.3901 43.5 23.085 43.5 21.75C43.4978 19.9605 42.786 18.2448 41.5206 16.9794C40.2552 15.714 38.5395 15.0022 36.75 15ZM36.75 27C35.7117 27 34.6966 26.6921 33.8333 26.1152C32.9699 25.5383 32.297 24.7184 31.8996 23.7591C31.5023 22.7998 31.3983 21.7442 31.6009 20.7258C31.8035 19.7074 32.3035 18.7719 33.0377 18.0377C33.7719 17.3035 34.7074 16.8034 35.7258 16.6009C36.7442 16.3983 37.7998 16.5023 38.7591 16.8996C39.7184 17.297 40.5383 17.9699 41.1152 18.8333C41.6921 19.6966 42 20.7116 42 21.75C41.9984 23.1419 41.4448 24.4763 40.4606 25.4606C39.4763 26.4448 38.1419 26.9984 36.75 27Z" fill="#FFB000"/>
<path d="M33 21.75H34.5C34.5 21.1533 34.7371 20.581 35.159 20.159C35.581 19.7371 36.1533 19.5 36.75 19.5V18C35.7558 18.0012 34.8027 18.3967 34.0997 19.0997C33.3967 19.8027 33.0012 20.7558 33 21.75Z" fill="#FFB000"/>
<path d="M36 36H37.5V37.5H36V36Z" fill="#FFB000"/>
<path d="M36 39H37.5V43.5H36V39Z" fill="#FFB000"/>
</svg>
