<svg width="28" height="24" viewBox="0 0 28 24" fill="none" xmlns="http://www.w3.org/2000/svg">
<path d="M11.5955 7.02733C11.0156 6.67093 10.2725 7.10173 10.2725 7.80013V16.2001C10.2725 16.9021 11.0168 17.3269 11.5955 16.9741L18.4426 12.7801C19.0119 12.4309 19.0108 11.5837 18.4438 11.2333L11.5955 7.02733ZM12.0225 14.6173V9.38532L16.2866 12.0049L12.0225 14.6173Z" fill="white"/>
<path d="M23.2213 1.52518C17.7928 0.695978 10.2095 0.695978 4.77867 1.52518C2.60633 1.85638 0.894833 3.61078 0.5215 5.88838C-0.173833 10.116 -0.173833 13.8852 0.5215 18.1116C0.894833 20.3904 2.60633 22.1436 4.77867 22.4748C7.49933 22.89 10.7567 23.0976 14.0128 23.0976C17.2632 23.0976 20.5123 22.8912 23.2225 22.476C25.3925 22.1448 27.1028 20.3916 27.4785 18.1128C28.1738 13.8852 28.1738 10.1148 27.4785 5.88718C27.1052 3.61078 25.3937 1.85638 23.2213 1.52518ZM25.753 17.8128C25.5045 19.32 24.3845 20.4792 22.9647 20.6952C17.6937 21.5004 10.3203 21.5004 5.03533 20.694C3.61433 20.4768 2.49317 19.3188 2.24583 17.8116C1.57617 13.7388 1.57617 10.2624 2.24583 6.18718C2.49433 4.67998 3.61433 3.52318 5.0365 3.30478C7.6755 2.90278 10.8383 2.70118 13.9988 2.70118C17.1617 2.70118 20.3245 2.90278 22.9635 3.30478C24.3845 3.52198 25.5057 4.67998 25.753 6.18718C26.4227 10.2624 26.4227 13.7388 25.753 17.8128Z" fill="white"/>
</svg>
