<svg width="48" height="48" viewBox="0 0 48 48" fill="none" xmlns="http://www.w3.org/2000/svg">
<path d="M44.25 11.25H42.75V10.5H43.5C44.0967 10.5 44.669 10.2629 45.091 9.84094C45.5129 9.41899 45.75 8.84669 45.75 8.24995C45.75 7.65321 45.5129 7.08092 45.091 6.65896C44.669 6.237 44.0967 5.99995 43.5 5.99995H42.75V2.24995C42.7511 2.13253 42.7237 2.01659 42.6701 1.91209C42.6166 1.80759 42.5385 1.71764 42.4425 1.64995C42.3496 1.57961 42.2415 1.5321 42.1268 1.51126C42.0122 1.49041 41.8942 1.49682 41.7825 1.52995L32.1375 4.49995H27C26.8011 4.49995 26.6103 4.57897 26.4697 4.71962C26.329 4.86027 26.25 5.05104 26.25 5.24995V5.99995H24.75C24.5511 5.99995 24.3603 6.07897 24.2197 6.21962C24.079 6.36027 24 6.55104 24 6.74995V9.74995C24 9.94886 24.079 10.1396 24.2197 10.2803C24.3603 10.4209 24.5511 10.5 24.75 10.5H26.25V11.25H21.75V4.49995C21.75 4.30104 21.671 4.11027 21.5303 3.96962C21.3897 3.82897 21.1989 3.74995 21 3.74995H6C5.80109 3.74995 5.61032 3.82897 5.46967 3.96962C5.32902 4.11027 5.25 4.30104 5.25 4.49995V11.25H3.75C3.15381 11.2517 2.58255 11.4894 2.16098 11.9109C1.73941 12.3325 1.50178 12.9038 1.5 13.5V37.5C1.50178 38.0961 1.73941 38.6674 2.16098 39.089C2.58255 39.5105 3.15381 39.7482 3.75 39.75H21V42H16.5C16.3011 42 16.1103 42.079 15.9697 42.2196C15.829 42.3603 15.75 42.551 15.75 42.75V45.75C15.75 45.9489 15.829 46.1396 15.9697 46.2803C16.1103 46.4209 16.3011 46.5 16.5 46.5H31.5C31.6989 46.5 31.8897 46.4209 32.0303 46.2803C32.171 46.1396 32.25 45.9489 32.25 45.75V42.75C32.25 42.551 32.171 42.3603 32.0303 42.2196C31.8897 42.079 31.6989 42 31.5 42H27V39.75H44.25C44.8462 39.7482 45.4175 39.5105 45.839 39.089C46.2606 38.6674 46.4982 38.0961 46.5 37.5V13.5C46.4982 12.9038 46.2606 12.3325 45.839 11.9109C45.4175 11.4894 44.8462 11.2517 44.25 11.25V11.25ZM42.75 7.49995H43.5C43.6989 7.49995 43.8897 7.57897 44.0303 7.71962C44.171 7.86027 44.25 8.05104 44.25 8.24995C44.25 8.44886 44.171 8.63963 44.0303 8.78028C43.8897 8.92093 43.6989 8.99995 43.5 8.99995H42.75V7.49995ZM33 5.80495L41.25 3.26245V13.2375L33 10.695V5.80495ZM27.75 5.99995H31.5V10.5H27.75V5.99995ZM29.8875 12L29.3475 15.75H28.5V12H29.8875ZM25.5 8.99995V7.49995H26.25V8.99995H25.5ZM6.75 5.24995H20.25V15.75H6.75V5.24995ZM30.75 43.5V45H17.25V43.5H30.75ZM22.5 42V39.75H25.5V42H22.5ZM45 37.5C45 37.6989 44.921 37.8896 44.7803 38.0303C44.6397 38.1709 44.4489 38.25 44.25 38.25H3.75C3.55109 38.25 3.36032 38.1709 3.21967 38.0303C3.07902 37.8896 3 37.6989 3 37.5V36.75H45V37.5ZM45 35.25H3V13.5C3 13.301 3.07902 13.1103 3.21967 12.9696C3.36032 12.829 3.55109 12.75 3.75 12.75H5.25V16.5C5.25 16.6989 5.32902 16.8896 5.46967 17.0303C5.61032 17.1709 5.80109 17.25 6 17.25H21C21.1989 17.25 21.3897 17.1709 21.5303 17.0303C21.671 16.8896 21.75 16.6989 21.75 16.5V12.75H27V16.5C27 16.6989 27.079 16.8896 27.2197 17.0303C27.3603 17.1709 27.5511 17.25 27.75 17.25H30C30.1807 17.2499 30.3553 17.1847 30.4917 17.0662C30.6282 16.9476 30.7172 16.7839 30.7425 16.605L31.4025 12H32.1375L41.7825 14.97C41.8529 14.9914 41.9264 15.0016 42 15C42.198 14.997 42.3871 14.9171 42.5271 14.7771C42.6671 14.637 42.7471 14.448 42.75 14.25V12.75H44.25C44.4489 12.75 44.6397 12.829 44.7803 12.9696C44.921 13.1103 45 13.301 45 13.5V35.25Z" fill="#FFB000"/>
<path d="M5.25 33.75H24.75C24.9489 33.75 25.1397 33.671 25.2803 33.5303C25.421 33.3897 25.5 33.1989 25.5 33V21C25.5 20.8011 25.421 20.6103 25.2803 20.4697C25.1397 20.329 24.9489 20.25 24.75 20.25H5.25C5.05109 20.25 4.86032 20.329 4.71967 20.4697C4.57902 20.6103 4.5 20.8011 4.5 21V33C4.5 33.1989 4.57902 33.3897 4.71967 33.5303C4.86032 33.671 5.05109 33.75 5.25 33.75ZM6 32.25V22.3417L14.607 27.639C14.7252 27.7117 14.8612 27.7502 15 27.7502C15.1388 27.7502 15.2748 27.7117 15.393 27.639L24 22.3417V32.25H6ZM7.89975 21.75H22.1002L15 26.1195L7.89975 21.75Z" fill="#FFB000"/>
<path d="M27.75 29.25H29.25V31.5C29.25 31.6989 29.329 31.8897 29.4697 32.0303C29.6103 32.171 29.8011 32.25 30 32.25H42.75C42.9489 32.25 43.1397 32.171 43.2803 32.0303C43.421 31.8897 43.5 31.6989 43.5 31.5V22.5C43.5 22.3011 43.421 22.1103 43.2803 21.9697C43.1397 21.829 42.9489 21.75 42.75 21.75H42V19.5C42 19.3011 41.921 19.1103 41.7803 18.9697C41.6397 18.829 41.4489 18.75 41.25 18.75H27.75C27.5511 18.75 27.3603 18.829 27.2197 18.9697C27.079 19.1103 27 19.3011 27 19.5V28.5C27 28.6989 27.079 28.8897 27.2197 29.0303C27.3603 29.171 27.5511 29.25 27.75 29.25ZM42 30.75H30.75V23.25H42V30.75ZM28.5 20.25H40.5V21.75H30C29.8011 21.75 29.6103 21.829 29.4697 21.9697C29.329 22.1103 29.25 22.3011 29.25 22.5V27.75H28.5V20.25Z" fill="#FFB000"/>
<path d="M32.25 24.75H33.75V26.25H32.25V24.75Z" fill="#FFB000"/>
<path d="M35.25 24.75H40.5V26.25H35.25V24.75Z" fill="#FFB000"/>
<path d="M32.25 27.75H35.25V29.25H32.25V27.75Z" fill="#FFB000"/>
<path d="M36.75 27.75H40.5V29.25H36.75V27.75Z" fill="#FFB000"/>
<path d="M11.6055 13.3882C11.7142 13.4555 11.8384 13.4938 11.9661 13.4996C12.0938 13.5054 12.2209 13.4784 12.3353 13.4212L16.8353 11.1712C16.9601 11.109 17.065 11.0133 17.1384 10.8947C17.2118 10.7761 17.2507 10.6394 17.2507 10.5C17.2507 10.3605 17.2118 10.2239 17.1384 10.1053C17.065 9.9867 16.9601 9.89094 16.8353 9.82873L12.3353 7.57873C12.2209 7.52158 12.0938 7.49462 11.9661 7.5004C11.8383 7.50619 11.7142 7.54453 11.6055 7.61179C11.4967 7.67904 11.407 7.77298 11.3448 7.88468C11.2826 7.99638 11.2499 8.12213 11.25 8.24998V12.75C11.2499 12.8779 11.2826 13.0036 11.3448 13.1153C11.407 13.227 11.4968 13.321 11.6055 13.3882V13.3882ZM12.75 9.46348L14.823 10.5L12.75 11.5365V9.46348Z" fill="#FFB000"/>
</svg>
