<svg width="48" height="48" viewBox="0 0 48 48" fill="none" xmlns="http://www.w3.org/2000/svg">
<path d="M44.25 7.5H39.75V9H44.25C44.4488 9.00023 44.6395 9.07932 44.7801 9.21992C44.9207 9.36052 44.9998 9.55116 45 9.75V33C44.9998 33.1988 44.9207 33.3895 44.7801 33.5301C44.6395 33.6707 44.4488 33.7498 44.25 33.75H3.75C3.55116 33.7498 3.36052 33.6707 3.21992 33.5301C3.07932 33.3895 3.00023 33.1988 3 33V9.75C3.00023 9.55116 3.07932 9.36052 3.21992 9.21992C3.36052 9.07932 3.55116 9.00023 3.75 9H8.25V7.5H3.75C3.15347 7.50068 2.58157 7.73795 2.15976 8.15976C1.73795 8.58157 1.50068 9.15347 1.5 9.75V33C1.50068 33.5965 1.73795 34.1684 2.15976 34.5902C2.58157 35.012 3.15347 35.2493 3.75 35.25H19.5V42H18C17.8011 42 17.6103 42.079 17.4697 42.2197C17.329 42.3603 17.25 42.5511 17.25 42.75V45.75C17.25 45.9489 17.329 46.1397 17.4697 46.2803C17.6103 46.421 17.8011 46.5 18 46.5H30C30.1989 46.5 30.3897 46.421 30.5303 46.2803C30.671 46.1397 30.75 45.9489 30.75 45.75V42.75C30.75 42.5511 30.671 42.3603 30.5303 42.2197C30.3897 42.079 30.1989 42 30 42H28.5V35.25H44.25C44.8465 35.2493 45.4184 35.012 45.8402 34.5902C46.262 34.1684 46.4993 33.5965 46.5 33V9.75C46.4993 9.15347 46.262 8.58157 45.8402 8.15976C45.4184 7.73795 44.8465 7.50068 44.25 7.5V7.5ZM29.25 45H18.75V43.5H29.25V45ZM27 42H21V35.25H23.25V38.25C23.25 38.4489 23.329 38.6397 23.4697 38.7803C23.6103 38.921 23.8011 39 24 39C24.1989 39 24.3897 38.921 24.5303 38.7803C24.671 38.6397 24.75 38.4489 24.75 38.25V35.25H27V42Z" fill="#FFB000"/>
<path d="M6 25.5V27H42V25.5H38.25V8.25C38.25 8.13357 38.2229 8.01873 38.1708 7.9146L35.1708 1.9146C35.1085 1.79002 35.0128 1.68524 34.8943 1.61202C34.7758 1.53879 34.6393 1.5 34.5 1.5H13.5C13.3607 1.5 13.2242 1.53879 13.1057 1.61202C12.9872 1.68524 12.8915 1.79002 12.8292 1.9146L9.82919 7.9146C9.7771 8.01873 9.74999 8.13357 9.75 8.25V25.5H6ZM28.5 25.5V16.5H33V25.5H28.5ZM32.25 10.5C32.25 10.8978 32.092 11.2794 31.8107 11.5607C31.5294 11.842 31.1478 12 30.75 12C30.3522 12 29.9706 11.842 29.6893 11.5607C29.408 11.2794 29.25 10.8978 29.25 10.5V9H32.25V10.5ZM27.75 10.5C27.75 10.8978 27.592 11.2794 27.3107 11.5607C27.0294 11.842 26.6478 12 26.25 12C25.8522 12 25.4706 11.842 25.1893 11.5607C24.908 11.2794 24.75 10.8978 24.75 10.5V9H27.75V10.5ZM23.25 10.5C23.25 10.8978 23.092 11.2794 22.8107 11.5607C22.5294 11.842 22.1478 12 21.75 12C21.3522 12 20.9706 11.842 20.6893 11.5607C20.408 11.2794 20.25 10.8978 20.25 10.5V9H23.25V10.5ZM18.75 10.5C18.75 10.8978 18.592 11.2794 18.3107 11.5607C18.0294 11.842 17.6478 12 17.25 12C16.8522 12 16.4706 11.842 16.1893 11.5607C15.908 11.2794 15.75 10.8978 15.75 10.5V9H18.75V10.5ZM11.25 9H14.25V10.5C14.25 10.8978 14.092 11.2794 13.8107 11.5607C13.5294 11.842 13.1478 12 12.75 12C12.3522 12 11.9706 11.842 11.6893 11.5607C11.408 11.2794 11.25 10.8978 11.25 10.5V9ZM28.0365 7.5H25.2135L27.4635 3H30.2865L28.0365 7.5ZM23.5365 7.5H20.7135L22.9635 3H25.7865L23.5365 7.5ZM19.0365 7.5H16.2135L18.4635 3H21.2865L19.0365 7.5ZM33.75 9H36.75V10.5C36.75 10.8978 36.592 11.2794 36.3107 11.5607C36.0294 11.842 35.6478 12 35.25 12C34.8522 12 34.4706 11.842 34.1893 11.5607C33.908 11.2794 33.75 10.8978 33.75 10.5V9ZM34.2135 7.5L35.25 5.42704L36.2865 7.5H34.2135ZM34.4115 3.75002L32.5365 7.5H29.7135L31.9635 3H34.0365L34.4115 3.75002ZM13.9635 3H16.7865L14.5365 7.5H11.7135L13.9635 3ZM11.25 13.0964C11.8496 13.444 12.5513 13.5727 13.2352 13.4605C13.9192 13.3483 14.5429 13.0021 15 12.4811C15.281 12.8012 15.627 13.0577 16.015 13.2334C16.403 13.4091 16.8241 13.5 17.25 13.5C17.6759 13.5 18.097 13.4091 18.485 13.2334C18.873 13.0577 19.219 12.8012 19.5 12.4811C19.781 12.8012 20.127 13.0577 20.515 13.2334C20.903 13.4091 21.3241 13.5 21.75 13.5C22.1759 13.5 22.597 13.4091 22.985 13.2334C23.373 13.0577 23.719 12.8012 24 12.4811C24.281 12.8012 24.627 13.0577 25.015 13.2334C25.403 13.4091 25.8241 13.5 26.25 13.5C26.6759 13.5 27.097 13.4091 27.485 13.2334C27.873 13.0577 28.219 12.8012 28.5 12.4811C28.781 12.8012 29.127 13.0577 29.515 13.2334C29.903 13.4091 30.3241 13.5 30.75 13.5C31.1759 13.5 31.597 13.4091 31.985 13.2334C32.373 13.0577 32.719 12.8012 33 12.4811C33.4571 13.0021 34.0808 13.3483 34.7648 13.4605C35.4487 13.5727 36.1504 13.444 36.75 13.0964V25.5H34.5V15.75C34.5 15.5511 34.421 15.3603 34.2803 15.2197C34.1397 15.079 33.9489 15 33.75 15H27.75C27.5511 15 27.3603 15.079 27.2197 15.2197C27.079 15.3603 27 15.5511 27 15.75V25.5H11.25V13.0964Z" fill="#FFB000"/>
<path d="M24 15H14.25C14.0511 15 13.8603 15.079 13.7197 15.2197C13.579 15.3603 13.5 15.5511 13.5 15.75V22.5C13.5 22.6989 13.579 22.8897 13.7197 23.0303C13.8603 23.171 14.0511 23.25 14.25 23.25H24C24.1989 23.25 24.3897 23.171 24.5303 23.0303C24.671 22.8897 24.75 22.6989 24.75 22.5V15.75C24.75 15.5511 24.671 15.3603 24.5303 15.2197C24.3897 15.079 24.1989 15 24 15V15ZM23.25 21.75H15V16.5H23.25V21.75Z" fill="#FFB000"/>
<path d="M18 29.25H16.5V30.75H18V29.25Z" fill="#FFB000"/>
<path d="M22.5 29.25H21V30.75H22.5V29.25Z" fill="#FFB000"/>
<path d="M27 29.25H25.5V30.75H27V29.25Z" fill="#FFB000"/>
<path d="M31.5 29.25H30V30.75H31.5V29.25Z" fill="#FFB000"/>
<path d="M30 21.75C30.4142 21.75 30.75 21.4142 30.75 21C30.75 20.5858 30.4142 20.25 30 20.25C29.5858 20.25 29.25 20.5858 29.25 21C29.25 21.4142 29.5858 21.75 30 21.75Z" fill="#FFB000"/>
</svg>
