<svg width="48" height="48" viewBox="0 0 48 48" fill="none" xmlns="http://www.w3.org/2000/svg">
<path d="M34.131 19.5712C34.0896 19.478 34.0233 19.3981 33.9394 19.3402C32.7161 17.8895 31.1901 16.7241 29.4684 15.9259C27.7468 15.1278 25.8713 14.7162 23.9736 14.7201C22.076 14.724 20.2022 15.1433 18.4838 15.9485C16.7655 16.7537 15.2442 17.9253 14.0269 19.3811C13.9888 19.4145 13.9547 19.4522 13.9253 19.4936C13.92 19.5011 13.917 19.5093 13.9125 19.5168C12.0139 21.838 10.9766 24.7446 10.9766 27.7434C10.9766 30.7422 12.0139 33.6487 13.9125 35.9699C13.9174 35.9774 13.9204 35.9861 13.9253 35.9936C13.9548 36.0349 13.989 36.0727 14.0273 36.1061C15.2448 37.5616 16.7663 38.733 18.4848 39.5379C20.2033 40.3428 22.0771 40.7618 23.9748 40.7653C25.8724 40.7689 27.7479 40.357 29.4694 39.5586C31.1909 38.7601 32.7167 37.5945 33.9398 36.1436C34.022 36.0862 34.0869 36.0073 34.1273 35.9156C36.0005 33.6028 37.0227 30.7168 37.0227 27.7406C37.0227 24.7643 36.0005 21.8784 34.1273 19.5656L34.131 19.5712ZM33.3855 34.7448C32.5182 34.2232 31.5976 33.7957 30.6394 33.4698C31.0763 31.8146 31.3162 30.1136 31.3542 28.4021H35.6937C35.5672 30.6978 34.7641 32.9047 33.3855 34.7448V34.7448ZM12.3105 28.4013H16.6489C16.6869 30.1128 16.927 31.8139 17.364 33.4691C16.4058 33.795 15.4852 34.2224 14.6179 34.7441C13.2392 32.904 12.436 30.6971 12.3094 28.4013H12.3105ZM14.6183 20.7457C15.4856 21.2674 16.4062 21.6948 17.3644 22.0207C16.9275 23.6759 16.6876 25.377 16.6497 27.0884H12.3094C12.4359 24.7927 13.239 22.5858 14.6175 20.7457H14.6183ZM24.6585 23.0707C26.246 23.0288 27.8235 22.8064 29.3607 22.4077C29.7691 23.9362 29.9967 25.5073 30.039 27.0888H24.6578L24.6585 23.0707ZM24.6585 21.7582V16.1077C26.421 16.4958 27.9848 18.4233 28.968 21.1582C27.558 21.518 26.1124 21.7198 24.6578 21.7601L24.6585 21.7582ZM23.346 16.1058V21.7601C21.8916 21.7197 20.4463 21.5177 19.0365 21.1578C20.019 18.4233 21.5813 16.4958 23.3453 16.1077L23.346 16.1058ZM23.346 23.0707V27.087H17.964C18.0069 25.5059 18.2351 23.9353 18.6439 22.4073C20.1807 22.8066 21.758 23.0297 23.3453 23.0722L23.346 23.0707ZM17.964 28.4013H23.3453V32.4176C21.7578 32.4594 20.1803 32.6819 18.6432 33.0806C18.2347 31.5527 18.0067 29.9823 17.964 28.4013V28.4013ZM23.3453 33.7301V39.3824C21.5828 38.9943 20.019 37.0668 19.0358 34.332C20.4455 33.9722 21.8909 33.7704 23.3453 33.7301V33.7301ZM24.6578 39.3828V33.7301C26.1122 33.7705 27.5575 33.9725 28.9673 34.3323C27.984 37.0668 26.4218 38.9943 24.6578 39.3824V39.3828ZM24.6578 32.4179V28.4013H30.039C29.9961 29.9824 29.7679 31.553 29.3592 33.081C27.8223 32.6822 26.245 32.4596 24.6578 32.4176V32.4179ZM31.3542 27.0892C31.3162 25.3776 31.0761 23.6764 30.639 22.0211C31.5972 21.6952 32.5179 21.2678 33.3852 20.7461C34.7639 22.5864 35.567 24.7936 35.6933 27.0896L31.3542 27.0892ZM32.5272 19.7283C31.8035 20.1482 31.041 20.4972 30.2502 20.7704C29.7614 19.2898 28.9903 17.9178 27.9795 16.7306C29.7094 17.3595 31.2671 18.3862 32.5272 19.728V19.7283ZM20.0239 16.7302C19.0131 17.9175 18.242 19.2894 17.7533 20.7701C16.9624 20.4969 16.1997 20.1479 15.4759 19.728C16.736 18.386 18.2939 17.3592 20.0239 16.7302V16.7302ZM15.4759 35.7622C16.1997 35.3423 16.9624 34.9933 17.7533 34.7201C18.242 36.2008 19.0131 37.5727 20.0239 38.7599C18.2939 38.131 16.736 37.1041 15.4759 35.7622V35.7622ZM27.9788 38.7599C28.9896 37.5726 29.7607 36.2005 30.2494 34.7197C31.0403 34.9929 31.803 35.3419 32.5268 35.7618C31.2668 37.1038 29.7091 38.1308 27.9792 38.7599H27.9788Z" fill="#FFB000"/>
<path d="M45.8438 3.35596H2.15625C1.58453 3.35665 1.03642 3.5841 0.632186 3.98841C0.22795 4.39271 0.000595435 4.94086 0 5.51258L0 42.4876C0.000694666 43.0592 0.228093 43.6073 0.632318 44.0115C1.03654 44.4157 1.58459 44.6431 2.15625 44.6438H45.8438C46.4154 44.6431 46.9635 44.4157 47.3677 44.0115C47.7719 43.6073 47.9993 43.0592 48 42.4876V5.51258C47.9994 4.94086 47.772 4.39271 47.3678 3.98841C46.9636 3.5841 46.4155 3.35665 45.8438 3.35596V3.35596ZM1.3125 5.51258C1.3127 5.28887 1.40166 5.07437 1.55985 4.91618C1.71804 4.75799 1.93253 4.66903 2.15625 4.66883H45.8438C46.0675 4.66903 46.282 4.75799 46.4402 4.91618C46.5983 5.07437 46.6873 5.28887 46.6875 5.51258V10.844H1.3125V5.51258ZM45.8438 43.3317H2.15625C1.93247 43.3315 1.71792 43.2425 1.55972 43.0842C1.40151 42.926 1.3126 42.7114 1.3125 42.4876V12.1565H46.6875V42.4876C46.6874 42.7114 46.5985 42.926 46.4403 43.0842C46.2821 43.2425 46.0675 43.3315 45.8438 43.3317V43.3317Z" fill="#FFB000"/>
<path d="M6.4375 7.09998H4.1875C4.01345 7.09998 3.84653 7.16912 3.72346 7.29219C3.60039 7.41526 3.53125 7.58218 3.53125 7.75623C3.53125 7.93027 3.60039 8.09719 3.72346 8.22026C3.84653 8.34333 4.01345 8.41248 4.1875 8.41248H6.4375C6.61155 8.41248 6.77847 8.34333 6.90154 8.22026C7.02461 8.09719 7.09375 7.93027 7.09375 7.75623C7.09375 7.58218 7.02461 7.41526 6.90154 7.29219C6.77847 7.16912 6.61155 7.09998 6.4375 7.09998V7.09998Z" fill="#FFB000"/>
<path d="M12.7578 7.09998H10.5078C10.3338 7.09998 10.1668 7.16912 10.0438 7.29219C9.9207 7.41526 9.85156 7.58218 9.85156 7.75623C9.85156 7.93027 9.9207 8.09719 10.0438 8.22026C10.1668 8.34333 10.3338 8.41248 10.5078 8.41248H12.7578C12.9319 8.41248 13.0988 8.34333 13.2219 8.22026C13.3449 8.09719 13.4141 7.93027 13.4141 7.75623C13.4141 7.58218 13.3449 7.41526 13.2219 7.29219C13.0988 7.16912 12.9319 7.09998 12.7578 7.09998V7.09998Z" fill="#FFB000"/>
<path d="M19.0762 7.09998H16.8262C16.6521 7.09998 16.4852 7.16912 16.3621 7.29219C16.2391 7.41526 16.1699 7.58218 16.1699 7.75623C16.1699 7.93027 16.2391 8.09719 16.3621 8.22026C16.4852 8.34333 16.6521 8.41248 16.8262 8.41248H19.0762C19.2502 8.41248 19.4171 8.34333 19.5402 8.22026C19.6633 8.09719 19.7324 7.93027 19.7324 7.75623C19.7324 7.58218 19.6633 7.41526 19.5402 7.29219C19.4171 7.16912 19.2502 7.09998 19.0762 7.09998V7.09998Z" fill="#FFB000"/>
</svg>
