<svg width="48" height="48" viewBox="0 0 48 48" fill="none" xmlns="http://www.w3.org/2000/svg">
<g clip-path="url(#clip0)">
<path d="M39.5859 23.7159C39.5859 25.0436 40.666 26.1237 41.9937 26.1237C42.4022 26.1237 42.787 26.0211 43.1243 25.8409L43.7693 26.4859C43.9066 26.6232 44.0866 26.6919 44.2665 26.6919C44.4464 26.6919 44.6264 26.6233 44.7637 26.4859C45.0383 26.2113 45.0383 25.7661 44.7637 25.4916L44.1187 24.8466C44.2988 24.5093 44.4014 24.1245 44.4014 23.716C44.4014 22.3883 43.3213 21.3082 41.9936 21.3082C40.6659 21.3082 39.5859 22.3883 39.5859 23.7159V23.7159ZM42.9953 23.7159C42.9953 23.978 42.8933 24.2163 42.7278 24.3949C42.7181 24.4036 42.7082 24.4118 42.6989 24.4211C42.6896 24.4304 42.6815 24.4403 42.6728 24.4501C42.4941 24.6154 42.2558 24.7175 41.9937 24.7175C41.4414 24.7175 40.9922 24.2683 40.9922 23.716C40.9922 23.1637 41.4414 22.7145 41.9937 22.7145C42.546 22.7145 42.9953 23.1637 42.9953 23.7159V23.7159Z" fill="#FFB000"/>
<path d="M47.2969 18.2775H45.3722C44.9839 18.2775 44.6691 18.5923 44.6691 18.9806C44.6691 19.3689 44.9839 19.6837 45.3722 19.6837H46.5938V28.3162H41.2743C41.2721 28.3162 41.27 28.3162 41.2678 28.3162H37.9613V19.6837H41.2811C41.2819 19.6837 41.2826 19.6839 41.2834 19.6839C41.2842 19.6839 41.2852 19.6837 41.286 19.6837H42.0909C42.4793 19.6837 42.7941 19.3689 42.7941 18.9806C42.7941 18.5923 42.4793 18.2775 42.0909 18.2775H41.8029C40.6468 14.6861 38.3764 11.4615 35.3657 9.15342C32.1122 6.65911 28.2209 5.32823 24.1125 5.30442C24.0326 5.30255 24.1128 5.30442 23.8876 5.30442C20.5362 5.32448 17.2541 6.24117 14.3956 7.95539C14.0626 8.15508 13.9545 8.58698 14.1542 8.92008C14.3539 9.25308 14.7857 9.36127 15.1189 9.16148C16.433 8.37342 17.8442 7.76808 19.312 7.35595C17.9015 8.68111 16.6809 10.601 15.75 12.9743H10.6829C11.2597 12.2791 11.8911 11.625 12.577 11.0213C12.8686 10.7647 12.8969 10.3204 12.6404 10.029C12.3839 9.73748 11.9395 9.70898 11.6481 9.96558C9.10238 12.2058 7.22578 15.0709 6.19659 18.2775H0.703125C0.314812 18.2775 0 18.5923 0 18.9806V29.0193C0 29.4076 0.314812 29.7225 0.703125 29.7225H6.19706C7.35319 33.3138 9.62363 36.5384 12.6343 38.8465C15.8878 41.3408 19.779 42.6717 23.8876 42.6955C23.9241 42.6958 23.9423 42.6975 24.1125 42.6955C28.221 42.6717 32.1123 41.3408 35.3658 38.8465C38.3765 36.5384 40.6469 33.3138 41.803 29.7225H47.2969C47.6852 29.7225 48 29.4076 48 29.0193V18.9806C48 18.5923 47.6852 18.2775 47.2969 18.2775ZM37.2581 18.2775H33.6944C33.4567 16.8921 33.1386 15.588 32.7505 14.3805H38.3596C39.1672 15.5766 39.8301 16.883 40.3197 18.2775H37.2581ZM15.7336 18.2775C15.9851 16.8838 16.3242 15.5772 16.7365 14.3805H23.2969V18.2775H15.7336ZM24.7031 14.3805H31.2636C31.6758 15.5773 32.0149 16.8839 32.2664 18.2775H24.7031V14.3805ZM24.7031 6.76767C27.063 7.15289 29.2315 9.46177 30.7244 12.9743H24.7031V6.76767ZM37.3019 12.9743H32.2502C31.3231 10.6103 30.1088 8.69648 28.7062 7.3718C32.0728 8.33545 35.0751 10.3065 37.3019 12.9743ZM23.2969 6.76842V12.9743H17.2758C18.768 9.4643 20.9355 7.15617 23.2969 6.76842ZM9.63141 14.3805H15.2496C14.8614 15.588 14.5434 16.8922 14.3056 18.2775H7.68188C8.16563 16.8966 8.82084 15.5886 9.63141 14.3805ZM8.42438 28.3163H1.40625V19.6838H36.555V28.3163H11.7056C11.3173 28.3163 11.0025 28.6311 11.0025 29.0194C11.0025 29.4077 11.3173 29.7225 11.7056 29.7225H14.3056C14.5433 31.1079 14.8614 32.412 15.2495 33.6195H9.64041C8.83284 32.4234 8.16994 31.117 7.68028 29.7225H8.42428C8.81259 29.7225 9.12741 29.4077 9.12741 29.0194C9.12741 28.6311 8.81269 28.3163 8.42438 28.3163V28.3163ZM23.2969 35.0257V41.2323C20.937 40.8471 18.7685 38.5382 17.2756 35.0257H23.2969ZM16.7364 33.6195C16.3242 32.4227 15.9851 31.1161 15.7336 29.7225H23.2969V33.6195H16.7364ZM24.7031 41.2316V35.0257H30.7242C29.232 38.5357 27.0645 40.8438 24.7031 41.2316ZM24.7031 33.6195V29.7225H32.2664C32.0149 31.1162 31.6758 32.4228 31.2635 33.6195H24.7031V33.6195ZM10.6981 35.0257H15.7498C16.6769 37.3897 17.8912 39.3035 19.2938 40.6282C15.9272 39.6645 12.9249 37.6935 10.6981 35.0257V35.0257ZM28.7038 40.6289C30.1076 39.3042 31.3225 37.3901 32.25 35.0257H37.3019C35.0746 37.6942 32.0715 39.6654 28.7038 40.6289ZM38.3595 33.6195H32.7504C33.1386 32.412 33.4566 31.1078 33.6944 29.7225H37.2581H40.3197C39.83 31.117 39.1671 32.4233 38.3595 33.6195Z" fill="#FFB000"/>
</g>
<defs>
<clipPath id="clip0">
<rect width="48" height="48" fill="white"/>
</clipPath>
</defs>
</svg>
