<svg width="48" height="48" viewBox="0 0 48 48" fill="none" xmlns="http://www.w3.org/2000/svg">
<path d="M38.25 27.7782V24.7501C38.25 24.5512 38.171 24.3604 38.0303 24.2198C37.8897 24.0791 37.6989 24.0001 37.5 24.0001H26.1206C26.0082 23.6843 25.8269 23.3976 25.5898 23.1607C25.3527 22.9238 25.0658 22.7426 24.75 22.6304V20.222C27.2634 20.028 29.604 18.8682 31.2807 16.9857C32.9574 15.1033 33.8398 12.6446 33.7428 10.1256C33.6458 7.60656 32.5768 5.22303 30.7603 3.47513C28.9438 1.72724 26.5209 0.750854 24 0.750854C21.4791 0.750854 19.0562 1.72724 17.2397 3.47513C15.4232 5.22303 14.3543 7.60656 14.2572 10.1256C14.1602 12.6446 15.0426 15.1033 16.7193 16.9857C18.396 18.8682 20.7366 20.028 23.25 20.222V22.6304C22.9342 22.7426 22.6473 22.9238 22.4102 23.1607C22.1732 23.3976 21.9918 23.6843 21.8794 24.0001H10.5C10.3011 24.0001 10.1103 24.0791 9.96968 24.2198C9.82902 24.3604 9.75001 24.5512 9.75001 24.7501V27.7782C7.23659 27.9721 4.89597 29.132 3.21929 31.0144C1.54261 32.8969 0.660203 35.3556 0.757232 37.8746C0.854261 40.3936 1.92318 42.7771 3.7397 44.525C5.55621 46.2729 7.97912 47.2493 10.5 47.2493C13.0209 47.2493 15.4438 46.2729 17.2603 44.525C19.0768 42.7771 20.1458 40.3936 20.2428 37.8746C20.3398 35.3556 19.4574 32.8969 17.7807 31.0144C16.104 29.132 13.7634 27.9721 11.25 27.7782V25.5001H21.8794C22.0343 25.9387 22.3215 26.3185 22.7013 26.5871C23.0811 26.8557 23.5348 27 24 27C24.4652 27 24.9189 26.8557 25.2987 26.5871C25.6785 26.3185 25.9657 25.9387 26.1206 25.5001H36.75V27.7782C34.2366 27.9721 31.896 29.132 30.2193 31.0144C28.5426 32.8969 27.6602 35.3556 27.7572 37.8746C27.8543 40.3936 28.9232 42.7771 30.7397 44.525C32.5562 46.2729 34.9791 47.2493 37.5 47.2493C40.0209 47.2493 42.4438 46.2729 44.2603 44.525C46.0768 42.7771 47.1458 40.3936 47.2428 37.8746C47.3398 35.3556 46.4574 32.8969 44.7807 31.0144C43.104 29.132 40.7634 27.9721 38.25 27.7782V27.7782ZM10.5 45.7501C8.82102 45.7521 7.18188 45.2386 5.80407 44.2791C6.32157 43.7776 6.91594 43.5001 7.50001 43.5001H8.37938C8.53433 43.9387 8.82149 44.3185 9.20128 44.5871C9.58107 44.8557 10.0348 45 10.5 45C10.9652 45 11.4189 44.8557 11.7987 44.5871C12.1785 44.3185 12.4657 43.9387 12.6206 43.5001H13.5C14.0841 43.5001 14.6784 43.7776 15.1959 44.2791C13.8181 45.2386 12.179 45.7521 10.5 45.7501V45.7501ZM8.09532 36.0263C9.30844 36.0263 11.1834 35.807 13.5 34.8273V37.5001C13.5 38.2957 13.1839 39.0588 12.6213 39.6214C12.0587 40.184 11.2957 40.5001 10.5 40.5001C9.70436 40.5001 8.9413 40.184 8.37869 39.6214C7.81608 39.0588 7.50001 38.2957 7.50001 37.5001V36.0076C7.67626 36.0188 7.87407 36.0263 8.09532 36.0263ZM7.50001 34.5038V34.5001C7.50105 33.7048 7.81745 32.9423 8.37984 32.3799C8.94222 31.8175 9.70468 31.5011 10.5 31.5001C11.6859 31.5001 12.7369 32.2538 13.2197 33.3132C11.3597 34.142 9.83344 34.4166 8.84063 34.4963C8.39462 34.5335 7.9464 34.536 7.50001 34.5038V34.5038ZM11.25 41.9363V42.7501C11.25 42.949 11.171 43.1398 11.0303 43.2804C10.8897 43.4211 10.6989 43.5001 10.5 43.5001C10.3011 43.5001 10.1103 43.4211 9.96968 43.2804C9.82902 43.1398 9.75001 42.949 9.75001 42.7501V41.9363C10.2464 42.0213 10.7536 42.0213 11.25 41.9363V41.9363ZM18.75 37.5001C18.7512 39.6787 17.8881 41.7687 16.35 43.3116C15.5297 42.4698 14.5238 42.0001 13.5 42.0001H12.75V41.3945C13.4336 40.9997 14.0014 40.432 14.3963 39.7484C14.7912 39.0649 14.9994 38.2895 15 37.5001V34.5001C15 34.4785 14.9991 34.4579 14.9972 34.4363C14.9583 33.2887 14.4926 32.1969 13.6913 31.3745C13.2799 30.9414 12.785 30.5964 12.2365 30.3601C11.688 30.1239 11.0972 30.0014 10.5 30.0001C9.30692 30.0014 8.16306 30.4759 7.31942 31.3195C6.47578 32.1631 6.00127 33.307 6.00001 34.5001V37.5001C6.0006 38.2895 6.20881 39.0649 6.60373 39.7484C6.99865 40.432 7.5664 40.9997 8.25001 41.3945V42.0001H7.50001C6.47626 42.0001 5.47032 42.4698 4.65001 43.3116C3.6948 42.3501 2.99126 41.168 2.6016 39.8699C2.21195 38.5717 2.14819 37.1976 2.41596 35.8689C2.68374 34.5403 3.2748 33.2981 4.13686 32.2522C4.99893 31.2064 6.10543 30.3891 7.35852 29.8726C8.61161 29.3561 9.97267 29.1564 11.3213 29.291C12.67 29.4257 13.9646 29.8907 15.0909 30.6447C16.2171 31.3988 17.1401 32.4188 17.7783 33.6145C18.4165 34.8102 18.7503 36.1447 18.75 37.5001V37.5001ZM27.3853 18.0235C27.5556 17.7573 27.7118 17.4822 27.8531 17.1995C28.3088 16.2615 28.6469 15.2709 28.86 14.2501H31.3472C30.4906 15.9193 29.0942 17.2493 27.3853 18.0235ZM20.3981 12.7501C20.2006 11.2566 20.2006 9.74359 20.3981 8.25009H27.6019C27.7994 9.74359 27.7994 11.2566 27.6019 12.7501H20.3981ZM32.25 10.5001C32.2507 11.2609 32.1456 12.0182 31.9378 12.7501H29.1141C29.2953 11.2556 29.2953 9.74461 29.1141 8.25009H31.9378C32.1456 8.98201 32.2507 9.73925 32.25 10.5001V10.5001ZM31.3472 6.75009H28.86C28.6469 5.7293 28.3088 4.7387 27.8531 3.80072C27.7118 3.518 27.5556 3.24293 27.3853 2.97665C29.0942 3.75091 30.4906 5.08092 31.3472 6.75009V6.75009ZM21.4884 4.47197C22.1944 3.06009 23.1103 2.25009 24 2.25009C24.8897 2.25009 25.8056 3.06009 26.5116 4.47197C26.8657 5.19884 27.1377 5.96293 27.3225 6.75009H20.6775C20.8623 5.96293 21.1343 5.19884 21.4884 4.47197V4.47197ZM20.6147 2.97665C20.4444 3.24293 20.2882 3.518 20.1469 3.80072C19.6913 4.7387 19.3531 5.7293 19.14 6.75009H16.6528C17.5094 5.08092 18.9058 3.75091 20.6147 2.97665V2.97665ZM15.75 10.5001C15.7494 9.73925 15.8544 8.98201 16.0622 8.25009H18.8859C18.7047 9.74461 18.7047 11.2556 18.8859 12.7501H16.0622C15.8544 12.0182 15.7494 11.2609 15.75 10.5001V10.5001ZM16.6528 14.2501H19.14C19.3531 15.2709 19.6913 16.2615 20.1469 17.1995C20.2882 17.4822 20.4444 17.7573 20.6147 18.0235C18.9058 17.2493 17.5094 15.9193 16.6528 14.2501V14.2501ZM21.4884 16.5282C21.1343 15.8013 20.8623 15.0372 20.6775 14.2501H27.3225C27.1377 15.0372 26.8657 15.8013 26.5116 16.5282C25.8056 17.9401 24.8897 18.7501 24 18.7501C23.1103 18.7501 22.1944 17.9401 21.4884 16.5282V16.5282ZM24 25.5001C23.8517 25.5001 23.7067 25.4561 23.5833 25.3737C23.46 25.2913 23.3639 25.1741 23.3071 25.0371C23.2503 24.9001 23.2355 24.7493 23.2644 24.6038C23.2934 24.4583 23.3648 24.3246 23.4697 24.2198C23.5746 24.1149 23.7082 24.0434 23.8537 24.0145C23.9992 23.9856 24.15 24.0004 24.287 24.0572C24.4241 24.1139 24.5412 24.2101 24.6236 24.3334C24.706 24.4567 24.75 24.6018 24.75 24.7501C24.7497 24.9489 24.6706 25.1395 24.53 25.2801C24.3894 25.4207 24.1988 25.4998 24 25.5001V25.5001ZM37.5 45.7501C35.821 45.7521 34.1819 45.2386 32.8041 44.2791C33.3216 43.7776 33.9159 43.5001 34.5 43.5001H35.3794C35.5343 43.9387 35.8215 44.3185 36.2013 44.5871C36.5811 44.8557 37.0348 45 37.5 45C37.9652 45 38.4189 44.8557 38.7987 44.5871C39.1785 44.3185 39.4657 43.9387 39.6206 43.5001H40.5C41.0841 43.5001 41.6784 43.7776 42.1959 44.2791C40.8181 45.2386 39.179 45.7521 37.5 45.7501V45.7501ZM35.0953 36.0263C36.3084 36.0263 38.1834 35.807 40.5 34.8273V37.5001C40.5 38.2957 40.1839 39.0588 39.6213 39.6214C39.0587 40.184 38.2957 40.5001 37.5 40.5001C36.7044 40.5001 35.9413 40.184 35.3787 39.6214C34.8161 39.0588 34.5 38.2957 34.5 37.5001V36.0076C34.6763 36.0188 34.8741 36.0263 35.0953 36.0263ZM34.5 34.5038V34.5001C34.501 33.7048 34.8175 32.9423 35.3798 32.3799C35.9422 31.8175 36.7047 31.5011 37.5 31.5001C38.6859 31.5001 39.7369 32.2538 40.2197 33.3132C38.3597 34.142 36.8334 34.4166 35.8406 34.4963C35.3946 34.5335 34.9464 34.536 34.5 34.5038V34.5038ZM38.25 41.9363V42.7501C38.25 42.949 38.171 43.1398 38.0303 43.2804C37.8897 43.4211 37.6989 43.5001 37.5 43.5001C37.3011 43.5001 37.1103 43.4211 36.9697 43.2804C36.829 43.1398 36.75 42.949 36.75 42.7501V41.9363C37.2464 42.0213 37.7536 42.0213 38.25 41.9363V41.9363ZM43.35 43.3116C42.5297 42.4698 41.5238 42.0001 40.5 42.0001H39.75V41.3945C40.4336 40.9997 41.0014 40.432 41.3963 39.7484C41.7912 39.0649 41.9994 38.2895 42 37.5001V34.5001C42 34.4785 41.9991 34.4579 41.9972 34.4363C41.9583 33.2887 41.4926 32.1969 40.6913 31.3745C40.2799 30.9414 39.785 30.5964 39.2365 30.3601C38.688 30.1239 38.0972 30.0014 37.5 30.0001C36.3069 30.0014 35.1631 30.4759 34.3194 31.3195C33.4758 32.1631 33.0013 33.307 33 34.5001V37.5001C33.0006 38.2895 33.2088 39.0649 33.6037 39.7484C33.9986 40.432 34.5664 40.9997 35.25 41.3945V42.0001H34.5C33.4763 42.0001 32.4703 42.4698 31.65 43.3116C30.5009 42.156 29.7197 40.6859 29.4052 39.0869C29.0906 37.4878 29.2567 35.8314 29.8824 34.3266C30.5082 32.8218 31.5657 31.5361 32.9214 30.6316C34.2771 29.7271 35.8703 29.2444 37.5 29.2444C39.1297 29.2444 40.7229 29.7271 42.0786 30.6316C43.4343 31.5361 44.4918 32.8218 45.1176 34.3266C45.7434 35.8314 45.9094 37.4878 45.5949 39.0869C45.2803 40.6859 44.4991 42.156 43.35 43.3116V43.3116Z" fill="#FFB000"/>
</svg>
