<svg width="48" height="48" viewBox="0 0 48 48" fill="none" xmlns="http://www.w3.org/2000/svg">
<g clip-path="url(#clip0)">
<path d="M35.6023 48.0001C34.4244 48.0001 33.3063 47.431 32.6115 46.4778C32.4407 46.2435 32.1872 46.109 31.9161 46.109H29.2203C28.7285 46.109 28.288 45.8548 28.0421 45.4288C27.7962 45.0028 27.7961 44.4942 28.0421 44.0682L28.958 42.4817C29.4963 41.5494 29.7809 40.4875 29.7809 39.4109V38.9228L27.9869 38.5994C26.8115 38.3874 26.0278 37.2588 26.2397 36.0835C26.4516 34.9082 27.5802 34.124 28.7554 34.3363L29.7808 34.5211V33.4156C29.7808 30.2056 32.3923 27.5942 35.6023 27.5942C38.8123 27.5942 41.4238 30.2057 41.4238 33.4156V34.5211L42.449 34.3363C43.6249 34.1242 44.7531 34.9082 44.9649 36.0835C45.0676 36.6529 44.9424 37.2281 44.6124 37.7033C44.2824 38.1785 43.7871 38.4968 43.2177 38.5994L41.4237 38.9228V39.4109C41.4237 40.4874 41.7082 41.5492 42.2465 42.4817L43.1625 44.0682C43.4084 44.4941 43.4084 45.0028 43.1625 45.4288C42.9166 45.8547 42.476 46.109 41.9841 46.109H39.2883C39.0173 46.109 38.7638 46.2435 38.593 46.4778C37.8984 47.431 36.7803 48.0001 35.6023 48.0001V48.0001ZM29.3016 44.7015H31.9162C32.6314 44.7015 33.3166 45.0556 33.7489 45.6487C34.1798 46.2397 34.8726 46.5927 35.6024 46.5927C36.3321 46.5927 37.025 46.2398 37.4558 45.6487C37.8882 45.0556 38.5733 44.7015 39.2886 44.7015H41.9031L41.0279 43.1853C40.3662 42.0391 40.0165 40.734 40.0165 39.4107V38.3345C40.0165 37.994 40.2603 37.7024 40.5953 37.642L42.9681 37.2141C43.3797 37.1399 43.6542 36.7447 43.5799 36.3331C43.5058 35.9215 43.1102 35.6472 42.6989 35.7213L40.8451 36.0556C40.6398 36.0927 40.4288 36.0369 40.2689 35.9031C40.1088 35.7694 40.0164 35.5716 40.0164 35.3631V33.4157C40.0164 30.9819 38.0363 29.0018 35.6024 29.0018C33.1685 29.0018 31.1883 30.9819 31.1883 33.4157V35.3631C31.1883 35.5716 31.0959 35.7694 30.9359 35.9031C30.7759 36.0367 30.5648 36.0926 30.3597 36.0556L28.5058 35.7213C28.0942 35.6472 27.699 35.9216 27.6248 36.3331C27.5507 36.7447 27.8251 37.1399 28.2366 37.2141L30.6094 37.642C30.9445 37.7024 31.1883 37.994 31.1883 38.3345V39.4108C31.1883 40.7341 30.8386 42.0393 30.1769 43.1854L29.3016 44.7015Z" fill="#FFB000"/>
<path d="M17.157 21.8977H13.2878C12.7445 21.8977 12.3025 21.4557 12.3025 20.9124V17.708C12.3025 17.3193 12.6176 17.0042 13.0063 17.0042C13.395 17.0042 13.7101 17.3192 13.7101 17.708V20.4902H16.7348V13.2836C16.7348 12.7921 17.1348 12.3923 17.6262 12.3923H19.0999V9.36731H17.6262C17.1347 9.36731 16.7348 8.96738 16.7348 8.47594V7.48837C16.7348 5.80322 18.1058 4.43231 19.7909 4.43231H20.4578V1.40747H19.791C16.4379 1.40747 13.7101 4.13531 13.7101 7.48847V8.47594C13.7101 8.96747 13.3102 9.36731 12.8187 9.36731H11.3451V12.3921H12.8187C13.3103 12.3921 13.7101 12.792 13.7101 13.2834V14.164C13.7101 14.5527 13.395 14.8678 13.0063 14.8678C12.6176 14.8678 12.3025 14.5528 12.3025 14.164V13.7995H10.9227C10.3794 13.7995 9.9375 13.3576 9.9375 12.8143V8.94506C9.9375 8.40178 10.3795 7.95984 10.9227 7.95984H12.3025V7.48847C12.3025 3.35934 15.6618 0 19.7909 0H20.8799C21.4232 0 21.8651 0.441937 21.8651 0.985219V4.85447C21.8651 5.39775 21.4231 5.83969 20.8799 5.83969H19.7908C18.8817 5.83969 18.1422 6.57928 18.1422 7.48828V7.95975H19.522C20.0653 7.95975 20.5073 8.40169 20.5073 8.94497V12.8142C20.5073 13.3575 20.0652 13.7994 19.522 13.7994H18.1422V20.9122C18.1422 21.4557 17.7002 21.8977 17.157 21.8977V21.8977Z" fill="#FFB000"/>
<path d="M37.8281 25.4624H27.1046C24.9339 25.4624 23.168 23.6964 23.168 21.5258V10.8024C23.168 8.63166 24.9339 6.8656 27.1046 6.8656H28.2815C28.6702 6.8656 28.9853 7.1806 28.9853 7.56938C28.9853 7.95816 28.6702 8.27316 28.2815 8.27316H27.1046C25.71 8.27316 24.5754 9.40782 24.5754 10.8024V21.5258C24.5754 22.9204 25.71 24.0548 27.1046 24.0548H37.828C39.2227 24.0548 40.3572 22.9203 40.3572 21.5258V10.8024C40.3572 9.40773 39.2227 8.27316 37.828 8.27316H31.8334C31.4447 8.27316 31.1296 7.95816 31.1296 7.56938C31.1296 7.1806 31.4447 6.8656 31.8334 6.8656H37.828C39.9987 6.8656 41.7647 8.63157 41.7647 10.8024V21.5258C41.7648 23.6964 39.9988 25.4624 37.8281 25.4624V25.4624Z" fill="#FFB000"/>
<path d="M32.4666 20.2828C30.1954 20.2828 28.3477 18.435 28.3477 16.164C28.3477 13.8928 30.1954 12.045 32.4666 12.045C34.7378 12.045 36.5855 13.8928 36.5855 16.164C36.5855 18.435 34.7378 20.2828 32.4666 20.2828ZM32.4666 13.4526C30.9715 13.4526 29.7552 14.6689 29.7552 16.164C29.7552 17.659 30.9715 18.8752 32.4666 18.8752C33.9616 18.8752 35.1779 17.659 35.1779 16.164C35.1779 14.6689 33.9616 13.4526 32.4666 13.4526Z" fill="#FFB000"/>
<path d="M37.2974 12.328C37.8468 12.328 38.2921 11.8827 38.2921 11.3333C38.2921 10.784 37.8468 10.3386 37.2974 10.3386C36.7481 10.3386 36.3027 10.784 36.3027 11.3333C36.3027 11.8827 36.7481 12.328 37.2974 12.328Z" fill="#FFB000"/>
<path d="M16.6767 41.2848C12.6216 41.2848 9.04426 38.5957 7.91082 34.7219C6.69348 34.0861 5.77792 33.0122 5.34413 31.7188C4.38029 31.622 3.68598 31.1781 3.33676 30.9002C3.0931 30.7064 2.96963 30.4061 3.00638 30.097C3.04313 29.7882 3.23354 29.5254 3.51582 29.3941L3.62495 29.3433C3.39948 29.0727 3.2416 28.8082 3.13501 28.5946C2.99616 28.3165 3.01098 27.9927 3.17438 27.7283C3.33807 27.4637 3.62167 27.3056 3.93301 27.3056H5.82385C6.77935 25.715 8.48945 24.7397 10.3596 24.7397C12.9447 24.7397 15.1136 26.5969 15.5639 29.0768C17.0815 28.7672 18.446 28.0199 19.5392 26.8939C19.9043 26.5181 20.2318 26.1039 20.5129 25.6629C20.7012 25.3675 21.0353 25.1924 21.386 25.2099C21.7383 25.2259 22.0577 25.4309 22.2195 25.7446C22.6703 26.6182 22.9753 27.5555 23.1263 28.5305C23.1857 28.9146 22.9225 29.2742 22.5384 29.3337C22.1544 29.3927 21.7947 29.13 21.7353 28.7459C21.6444 28.1583 21.4873 27.5871 21.2667 27.0402C21.0444 27.3323 20.8044 27.6113 20.5489 27.8745C19.1072 29.3593 17.1833 30.3177 15.1314 30.573C14.913 30.6 14.6907 30.5347 14.5217 30.3932C14.3521 30.2511 14.2481 30.0429 14.2365 29.8218C14.1273 27.7615 12.4243 26.1474 10.3595 26.1474C8.90917 26.1474 7.58992 26.9468 6.91632 28.2335C6.76173 28.5293 6.45892 28.7132 6.12638 28.7132H4.97035C5.02979 28.7657 5.09401 28.817 5.16329 28.8663C5.39373 29.0302 5.52095 29.3072 5.49507 29.5891C5.46957 29.8662 5.29942 30.1116 5.04967 30.233C5.25151 30.2925 5.48073 30.3279 5.73479 30.3302H5.73863C6.14345 30.3302 6.49707 30.6061 6.59907 31.0022C6.88567 32.1162 7.64748 33.0402 8.68895 33.5376C8.94995 33.6619 9.14298 33.8932 9.21817 34.1719C10.1256 37.5312 13.1926 39.8774 16.6767 39.8774C19.2163 39.8774 21.5538 38.6457 22.9907 36.6057C22.0707 36.7958 21.1203 36.8453 20.1572 36.7414C19.8339 36.7064 19.5647 36.4949 19.4546 36.1892C19.3449 35.8846 19.4163 35.5509 19.6411 35.3177C19.6419 35.3169 19.6426 35.3162 19.6432 35.3156C20.5311 34.401 21.1826 33.2771 21.5294 32.0632C21.6361 31.6894 22.0257 31.4733 22.3994 31.5797C22.7731 31.6865 22.9896 32.0761 22.8828 32.4497C22.5818 33.5036 22.0869 34.5 21.4312 35.3818C22.1667 35.354 22.8898 35.2228 23.5846 34.9906C23.9694 34.8618 24.3879 34.9781 24.6506 35.2864C24.9122 35.5935 24.9602 36.0232 24.773 36.381C23.19 39.4056 20.0877 41.2848 16.6767 41.2848V41.2848Z" fill="#FFB000"/>
</g>
<defs>
<clipPath id="clip0">
<rect width="48" height="48" fill="white"/>
</clipPath>
</defs>
</svg>
