<svg width="48" height="48" viewBox="0 0 48 48" fill="none" xmlns="http://www.w3.org/2000/svg">
<path d="M34.5 1.5H13.5C12.5058 1.50112 11.5526 1.89656 10.8496 2.59958C10.1466 3.3026 9.75112 4.25578 9.75 5.25V42.75C9.75112 43.7442 10.1466 44.6974 10.8496 45.4004C11.5526 46.1034 12.5058 46.4989 13.5 46.5H34.5C35.4942 46.4989 36.4474 46.1034 37.1504 45.4004C37.8534 44.6974 38.2489 43.7442 38.25 42.75V5.25C38.2489 4.25578 37.8534 3.3026 37.1504 2.59958C36.4474 1.89656 35.4942 1.50112 34.5 1.5V1.5ZM27.5394 3L27.1644 4.5H20.8356L20.4606 3H27.5394ZM36.75 42.75C36.7493 43.3465 36.512 43.9184 36.0902 44.3402C35.6684 44.762 35.0965 44.9993 34.5 45H13.5C12.9035 44.9993 12.3316 44.762 11.9098 44.3402C11.488 43.9184 11.2507 43.3465 11.25 42.75V40.5H36.75V42.75ZM36.75 39H11.25V5.25C11.2507 4.65348 11.488 4.08158 11.9098 3.65978C12.3316 3.23797 12.9035 3.00069 13.5 3H18.9144L19.5224 5.43187C19.563 5.59414 19.6566 5.7382 19.7884 5.84114C19.9203 5.94408 20.0827 6 20.25 6H27.75C27.9173 6 28.0797 5.94408 28.2116 5.84114C28.3434 5.7382 28.437 5.59414 28.4776 5.43187L29.0856 3H34.5C35.0965 3.00069 35.6684 3.23797 36.0902 3.65978C36.512 4.08158 36.7493 4.65348 36.75 5.25V39Z" fill="#FFB000"/>
<path d="M23.25 42H24.75V43.5H23.25V42Z" fill="#FFB000"/>
<path d="M26.25 24H21.75C21.5511 24 21.3603 24.079 21.2197 24.2197C21.079 24.3603 21 24.5511 21 24.75V29.25C21 29.4489 21.079 29.6397 21.2197 29.7803C21.3603 29.921 21.5511 30 21.75 30H26.25C26.4489 30 26.6397 29.921 26.7803 29.7803C26.921 29.6397 27 29.4489 27 29.25V24.75C27 24.5511 26.921 24.3603 26.7803 24.2197C26.6397 24.079 26.4489 24 26.25 24V24ZM25.5 28.5H22.5V25.5H25.5V28.5Z" fill="#FFB000"/>
<path d="M18.75 24H14.25C14.0511 24 13.8603 24.079 13.7197 24.2197C13.579 24.3603 13.5 24.5511 13.5 24.75V29.25C13.5 29.4489 13.579 29.6397 13.7197 29.7803C13.8603 29.921 14.0511 30 14.25 30H18.75C18.9489 30 19.1397 29.921 19.2803 29.7803C19.421 29.6397 19.5 29.4489 19.5 29.25V24.75C19.5 24.5511 19.421 24.3603 19.2803 24.2197C19.1397 24.079 18.9489 24 18.75 24V24ZM18 28.5H15V25.5H18V28.5Z" fill="#FFB000"/>
<path d="M33.75 16.5H29.25C29.0511 16.5 28.8603 16.579 28.7197 16.7197C28.579 16.8603 28.5 17.0511 28.5 17.25V21.75C28.5 21.9489 28.579 22.1397 28.7197 22.2803C28.8603 22.421 29.0511 22.5 29.25 22.5H33.75C33.9489 22.5 34.1397 22.421 34.2803 22.2803C34.421 22.1397 34.5 21.9489 34.5 21.75V17.25C34.5 17.0511 34.421 16.8603 34.2803 16.7197C34.1397 16.579 33.9489 16.5 33.75 16.5ZM33 21H30V18H33V21Z" fill="#FFB000"/>
<path d="M26.25 16.5H21.75C21.5511 16.5 21.3603 16.579 21.2197 16.7197C21.079 16.8603 21 17.0511 21 17.25V21.75C21 21.9489 21.079 22.1397 21.2197 22.2803C21.3603 22.421 21.5511 22.5 21.75 22.5H26.25C26.4489 22.5 26.6397 22.421 26.7803 22.2803C26.921 22.1397 27 21.9489 27 21.75V17.25C27 17.0511 26.921 16.8603 26.7803 16.7197C26.6397 16.579 26.4489 16.5 26.25 16.5ZM25.5 21H22.5V18H25.5V21Z" fill="#FFB000"/>
<path d="M18.75 16.5H14.25C14.0511 16.5 13.8603 16.579 13.7197 16.7197C13.579 16.8603 13.5 17.0511 13.5 17.25V21.75C13.5 21.9489 13.579 22.1397 13.7197 22.2803C13.8603 22.421 14.0511 22.5 14.25 22.5H18.75C18.9489 22.5 19.1397 22.421 19.2803 22.2803C19.421 22.1397 19.5 21.9489 19.5 21.75V17.25C19.5 17.0511 19.421 16.8603 19.2803 16.7197C19.1397 16.579 18.9489 16.5 18.75 16.5ZM18 21H15V18H18V21Z" fill="#FFB000"/>
<path d="M33.75 9H29.25C29.0511 9 28.8603 9.07902 28.7197 9.21967C28.579 9.36032 28.5 9.55109 28.5 9.75V14.25C28.5 14.4489 28.579 14.6397 28.7197 14.7803C28.8603 14.921 29.0511 15 29.25 15H33.75C33.9489 15 34.1397 14.921 34.2803 14.7803C34.421 14.6397 34.5 14.4489 34.5 14.25V9.75C34.5 9.55109 34.421 9.36032 34.2803 9.21967C34.1397 9.07902 33.9489 9 33.75 9ZM33 13.5H30V10.5H33V13.5Z" fill="#FFB000"/>
<path d="M26.25 9H21.75C21.5511 9 21.3603 9.07902 21.2197 9.21967C21.079 9.36032 21 9.55109 21 9.75V14.25C21 14.4489 21.079 14.6397 21.2197 14.7803C21.3603 14.921 21.5511 15 21.75 15H26.25C26.4489 15 26.6397 14.921 26.7803 14.7803C26.921 14.6397 27 14.4489 27 14.25V9.75C27 9.55109 26.921 9.36032 26.7803 9.21967C26.6397 9.07902 26.4489 9 26.25 9ZM25.5 13.5H22.5V10.5H25.5V13.5Z" fill="#FFB000"/>
<path d="M18.75 9H14.25C14.0511 9 13.8603 9.07902 13.7197 9.21967C13.579 9.36032 13.5 9.55109 13.5 9.75V14.25C13.5 14.4489 13.579 14.6397 13.7197 14.7803C13.8603 14.921 14.0511 15 14.25 15H18.75C18.9489 15 19.1397 14.921 19.2803 14.7803C19.421 14.6397 19.5 14.4489 19.5 14.25V9.75C19.5 9.55109 19.421 9.36032 19.2803 9.21967C19.1397 9.07902 18.9489 9 18.75 9ZM18 13.5H15V10.5H18V13.5Z" fill="#FFB000"/>
<path d="M32.25 24.0555H30.75V26.2499H28.5V27.75H30.75V30H32.25V27.75H34.5V26.2499H32.25V24.0555Z" fill="#FFB000"/>
</svg>
