<svg width="36" height="48" viewBox="0 0 36 48" fill="none" xmlns="http://www.w3.org/2000/svg">
<path d="M35.3952 9.12362L26.5252 0.264453C26.3549 0.0950943 26.1249 0 25.8849 0H1.2455C0.74558 0 0.339844 0.40483 0.339844 0.90566V47.0943C0.339844 47.5952 0.74558 48 1.2455 48H34.7549C35.2549 48 35.6606 47.5952 35.6606 47.0943V9.76483C35.6606 9.52483 35.5655 9.29479 35.3952 9.12362ZM32.5687 9.0566H26.604V3.09192L32.5687 9.0566ZM2.15116 46.1887V1.81132H24.7927V9.96226C24.7927 10.4631 25.1984 10.8679 25.6983 10.8679H33.8493V46.1887H2.15116Z" fill="#FFB000"/>
<path d="M17.9999 14.4906C11.2581 14.4906 5.77344 19.9753 5.77344 26.717C5.77344 33.4588 11.2581 38.9434 17.9999 38.9434C24.7416 38.9434 30.2263 33.4588 30.2263 26.717C30.2263 19.9753 24.7416 14.4906 17.9999 14.4906ZM17.9999 37.1321C12.2571 37.1321 7.58476 32.4598 7.58476 26.717C7.58476 20.9742 12.2571 16.3019 17.9999 16.3019C23.7426 16.3019 28.4149 20.9742 28.4149 26.717C28.4149 32.4598 23.7426 37.1321 17.9999 37.1321Z" fill="#FFB000"/>
<path d="M10.5352 24.3287H12.8437V30.7924H14.4141V24.3287H16.7172V23.0128H10.5352V24.3287Z" fill="#FFB000"/>
<path d="M21.4731 28.32L20.0611 23.0128H17.7109V30.7924H19.17V24.6684L20.7087 30.7924H22.2211L23.7653 24.6684V30.7924H25.2252V23.0128H22.8687L21.4731 28.32Z" fill="#FFB000"/>
</svg>
