<svg width="46" height="46" viewBox="0 0 46 46" fill="none" xmlns="http://www.w3.org/2000/svg">
<path d="M24.5 9.5H32C32.1989 9.5 32.3897 9.42098 32.5303 9.28033C32.671 9.13968 32.75 8.94891 32.75 8.75C32.7474 6.56276 31.8774 4.46584 30.3308 2.91922C28.7842 1.3726 26.6872 0.50258 24.5 0.5C24.3011 0.5 24.1103 0.579018 23.9697 0.71967C23.829 0.860322 23.75 1.05109 23.75 1.25V8.75C23.75 8.94891 23.829 9.13968 23.9697 9.28033C24.1103 9.42098 24.3011 9.5 24.5 9.5ZM25.25 2.04125C26.7708 2.2139 28.1882 2.89719 29.2705 3.9795C30.3528 5.06181 31.0361 6.47915 31.2087 8H25.25V2.04125Z" fill="#FFB000"/>
<path d="M36.0615 2H41.001V0.5H35.751C35.5521 0.500042 35.3613 0.579088 35.2207 0.71975L32.9707 2.96975L34.0312 4.03025L36.0615 2Z" fill="#FFB000"/>
<path d="M42.5 0.5H45.5V2H42.5V0.5Z" fill="#FFB000"/>
<path d="M11.9697 4.03025L13.0303 2.96975L10.7802 0.71975C10.6396 0.579088 10.4489 0.500042 10.25 0.5H5V2H9.9395L11.9697 4.03025Z" fill="#FFB000"/>
<path d="M0.5 0.5H3.5V2H0.5V0.5Z" fill="#FFB000"/>
<path d="M36.5 5H42.5V6.5H36.5V5Z" fill="#FFB000"/>
<path d="M44 5H45.5V6.5H44V5Z" fill="#FFB000"/>
<path d="M0.5 5H9.5V6.5H0.5V5Z" fill="#FFB000"/>
<path d="M18.1895 26H13.25V27.5H18.5C18.6989 27.4999 18.8896 27.4209 19.0303 27.2802L21.2803 25.0302L20.2197 23.9697L18.1895 26Z" fill="#FFB000"/>
<path d="M8.75 26H11.75V27.5H8.75V26Z" fill="#FFB000"/>
<path d="M8.75 21.5H17.75V23H8.75V21.5Z" fill="#FFB000"/>
<path d="M45.5 20.75C45.5019 18.9078 44.9814 17.1029 43.9988 15.5447C43.0163 13.9864 41.6119 12.7388 39.9489 11.9465C38.2858 11.1542 36.4321 10.8498 34.603 11.0686C32.7739 11.2874 31.0443 12.0204 29.615 13.1825C29.7019 12.7099 29.747 12.2305 29.75 11.75C29.75 11.5511 29.671 11.3603 29.5303 11.2197C29.3897 11.079 29.1989 11 29 11H22.25V4.25C22.25 4.05109 22.171 3.86032 22.0303 3.71967C21.8897 3.57902 21.6989 3.5 21.5 3.5C19.7063 3.50347 17.9624 4.09087 16.5322 5.17338C15.1019 6.25588 14.063 7.77464 13.5725 9.5H9.5C8.50544 9.5 7.55161 9.89509 6.84835 10.5983C6.14509 11.3016 5.75 12.2554 5.75 13.25V32.75C5.75 33.7446 6.14509 34.6984 6.84835 35.4016C7.55161 36.1049 8.50544 36.5 9.5 36.5H20V41H17.75C17.1538 41.0018 16.5825 41.2394 16.161 41.661C15.7394 42.0825 15.5018 42.6538 15.5 43.25V44.75C15.5 44.9489 15.579 45.1397 15.7197 45.2803C15.8603 45.421 16.0511 45.5 16.25 45.5H29.75C29.9489 45.5 30.1397 45.421 30.2803 45.2803C30.421 45.1397 30.5 44.9489 30.5 44.75V43.25C30.4982 42.6538 30.2606 42.0825 29.839 41.661C29.4175 41.2394 28.8462 41.0018 28.25 41H26V36.5H32V41.75C32 42.7446 32.3951 43.6984 33.0984 44.4016C33.8016 45.1049 34.7554 45.5 35.75 45.5C36.7446 45.5 37.6984 45.1049 38.4017 44.4016C39.1049 43.6984 39.5 42.7446 39.5 41.75V32.75C39.5 32.5511 39.421 32.3603 39.2803 32.2197C39.1397 32.079 38.9489 32 38.75 32H38V30.23C40.1327 29.7208 42.032 28.5089 43.3924 26.7894C44.7528 25.0698 45.4951 22.9426 45.5 20.75ZM20.75 5.045V11.75C20.75 11.9489 20.829 12.1397 20.9697 12.2803C21.1103 12.421 21.3011 12.5 21.5 12.5H28.205C28.0644 13.7636 27.5698 14.9618 26.7782 15.9566C25.9865 16.9515 24.93 17.7025 23.7302 18.1233C22.5305 18.544 21.2363 18.6174 19.9967 18.3349C18.7571 18.0524 17.6224 17.4256 16.7234 16.5266C15.8244 15.6276 15.1976 14.4929 14.9151 13.2533C14.6326 12.0137 14.706 10.7195 15.1267 9.51977C15.5475 8.32002 16.2985 7.2635 17.2934 6.47184C18.2882 5.68018 19.4864 5.18559 20.75 5.045ZM28.25 42.5C28.4489 42.5 28.6397 42.579 28.7803 42.7197C28.921 42.8603 29 43.0511 29 43.25V44H17V43.25C17 43.0511 17.079 42.8603 17.2197 42.7197C17.3603 42.579 17.5511 42.5 17.75 42.5H28.25ZM21.5 41V36.5H24.5V41H21.5ZM32.75 32C32.5511 32 32.3603 32.079 32.2197 32.2197C32.079 32.3603 32 32.5511 32 32.75V35H9.5C8.90381 34.9982 8.33255 34.7606 7.91098 34.339C7.48941 33.9175 7.25178 33.3462 7.25 32.75V32H30.5V30.5H7.25V13.25C7.25178 12.6538 7.48941 12.0825 7.91098 11.661C8.33255 11.2394 8.90381 11.0018 9.5 11H13.2875C13.265 11.2475 13.25 11.495 13.25 11.75C13.2485 13.2653 13.6649 14.7516 14.4532 16.0457C15.2415 17.3398 16.3713 18.3915 17.7185 19.0852C19.0656 19.7789 20.578 20.0879 22.0893 19.978C23.6006 19.8681 25.0523 19.3438 26.285 18.4625C26.0985 19.2108 26.0028 19.9788 26 20.75C26.0049 22.9426 26.7472 25.0698 28.1076 26.7894C29.468 28.5089 31.3673 29.7208 33.5 30.23V32H32.75ZM38 41.75C38 42.3467 37.7629 42.919 37.341 43.341C36.919 43.7629 36.3467 44 35.75 44C35.1533 44 34.581 43.7629 34.159 43.341C33.7371 42.919 33.5 42.3467 33.5 41.75V33.5H38V41.75ZM35 32V30.4625C35.2475 30.4775 35.495 30.5 35.75 30.5C36.005 30.5 36.2525 30.4775 36.5 30.4625V32H35ZM35.75 29C34.1183 29 32.5233 28.5161 31.1665 27.6096C29.8098 26.7031 28.7524 25.4146 28.128 23.9071C27.5036 22.3996 27.3402 20.7408 27.6585 19.1405C27.9769 17.5402 28.7626 16.0702 29.9164 14.9164C31.0702 13.7626 32.5402 12.9769 34.1405 12.6585C35.7409 12.3402 37.3997 12.5036 38.9071 13.128C40.4146 13.7524 41.7031 14.8098 42.6096 16.1665C43.5161 17.5233 44 19.1183 44 20.75C43.9986 22.9376 43.129 25.0352 41.5821 26.5821C40.0352 28.129 37.9376 28.9986 35.75 29Z" fill="#FFB000"/>
<path d="M35.75 14C34.415 14 33.1099 14.3959 31.9999 15.1376C30.8899 15.8793 30.0247 16.9335 29.5138 18.1669C29.0029 19.4003 28.8693 20.7575 29.1297 22.0669C29.3902 23.3762 30.033 24.579 30.977 25.523C31.921 26.467 33.1238 27.1099 34.4331 27.3703C35.7425 27.6308 37.0997 27.4971 38.3331 26.9862C39.5665 26.4753 40.6207 25.6101 41.3624 24.5001C42.1041 23.3901 42.5 22.085 42.5 20.75C42.4978 18.9605 41.786 17.2448 40.5206 15.9794C39.2552 14.714 37.5395 14.0022 35.75 14ZM35.75 26C34.7117 26 33.6966 25.6921 32.8333 25.1152C31.9699 24.5383 31.297 23.7184 30.8996 22.7591C30.5023 21.7998 30.3983 20.7442 30.6009 19.7258C30.8035 18.7074 31.3035 17.7719 32.0377 17.0377C32.7719 16.3035 33.7074 15.8034 34.7258 15.6009C35.7442 15.3983 36.7998 15.5023 37.7591 15.8996C38.7184 16.297 39.5383 16.9699 40.1152 17.8333C40.6921 18.6966 41 19.7116 41 20.75C40.9984 22.1419 40.4448 23.4763 39.4606 24.4606C38.4763 25.4448 37.1419 25.9984 35.75 26Z" fill="#FFB000"/>
<path d="M32 20.75H33.5C33.5 20.1533 33.7371 19.581 34.159 19.159C34.581 18.7371 35.1533 18.5 35.75 18.5V17C34.7558 17.0012 33.8027 17.3967 33.0997 18.0997C32.3967 18.8027 32.0012 19.7558 32 20.75Z" fill="#FFB000"/>
<path d="M35 35H36.5V36.5H35V35Z" fill="#FFB000"/>
<path d="M35 38H36.5V42.5H35V38Z" fill="#FFB000"/>
</svg>
