<svg width="20" height="20" viewBox="0 0 20 20" fill="none" xmlns="http://www.w3.org/2000/svg">
<g clip-path="url(#clip0)">
<path d="M8.2824 6.54679C7.86823 6.29929 7.3374 6.59845 7.3374 7.08345V12.9168C7.3374 13.4043 7.86907 13.6993 8.2824 13.4543L13.1732 10.5418C13.5799 10.2993 13.5791 9.71095 13.1741 9.46762L8.2824 6.54679ZM8.5874 11.8176V8.18429L11.6332 10.0034L8.5874 11.8176Z" fill="white"/>
<path d="M16.5867 2.72582C12.7092 2.14999 7.2925 2.14999 3.41333 2.72582C1.86167 2.95582 0.639167 4.17415 0.3725 5.75582C-0.124167 8.69165 -0.124167 11.3092 0.3725 14.2442C0.639167 15.8267 1.86167 17.0442 3.41333 17.2742C5.35667 17.5625 7.68333 17.7067 10.0092 17.7067C12.3308 17.7067 14.6517 17.5633 16.5875 17.275C18.1375 17.045 19.3592 15.8275 19.6275 14.245C20.1242 11.3092 20.1242 8.69082 19.6275 5.75499C19.3608 4.17415 18.1383 2.95582 16.5867 2.72582ZM18.395 14.0367C18.2175 15.0833 17.4175 15.8883 16.4033 16.0383C12.6383 16.5975 7.37167 16.5975 3.59667 16.0375C2.58167 15.8867 1.78083 15.0825 1.60417 14.0358C1.12583 11.2075 1.12583 8.79332 1.60417 5.96332C1.78167 4.91665 2.58167 4.11332 3.5975 3.96165C5.4825 3.68249 7.74167 3.54249 9.99917 3.54249C12.2583 3.54249 14.5175 3.68249 16.4025 3.96165C17.4175 4.11249 18.2183 4.91665 18.395 5.96332C18.8733 8.79332 18.8733 11.2075 18.395 14.0367Z" fill="white"/>
</g>
<defs>
<clipPath id="clip0">
<rect width="20" height="20" fill="white"/>
</clipPath>
</defs>
</svg>
