<svg width="40" height="40" viewBox="0 0 40 40" fill="none" xmlns="http://www.w3.org/2000/svg">
<path d="M20.0004 6.66699C18.162 6.66699 16.667 8.16191 16.667 10.0003C16.667 11.8388 18.1619 13.3337 20.0004 13.3337C21.8388 13.3337 23.3337 11.8388 23.3337 10.0003C23.3337 8.16191 21.8387 6.66699 20.0004 6.66699ZM20.0004 11.667C19.0816 11.667 18.3337 10.9191 18.3337 10.0003C18.3337 9.0816 19.0816 8.33371 20.0004 8.33371C20.9191 8.33371 21.667 9.0816 21.667 10.0003C21.667 10.9191 20.9191 11.667 20.0004 11.667Z" fill="#FFB000"/>
<path d="M22.5 15H15.8334C15.3727 15 15 15.3727 15 15.8334V19.1667C15 19.6273 15.3727 20.0001 15.8334 20.0001H16.6667V32.5001C16.6667 32.9607 17.0395 33.3334 17.5001 33.3334H22.5001C22.9607 33.3334 23.3334 32.9607 23.3334 32.5001V15.8334C23.3334 15.3727 22.9606 15 22.5 15ZM21.6666 31.6666H18.3333V19.1666C18.3333 18.706 17.9605 18.3333 17.4999 18.3333H16.6666V16.6666H21.6666V31.6666H21.6666Z" fill="#FFB000"/>
<path d="M20 0C8.97219 0 0 8.97219 0 20C0 31.0278 8.97219 40 20 40C31.0278 40 40 31.0278 40 20C40 8.97219 31.0278 0 20 0ZM20 38.3334C9.89094 38.3334 1.66664 30.1091 1.66664 20C1.66664 9.89094 9.89094 1.66664 20 1.66664C30.1091 1.66664 38.3334 9.89094 38.3334 20C38.3334 30.1091 30.1091 38.3334 20 38.3334Z" fill="#FFB000"/>
</svg>
