<svg width="40" height="40" viewBox="0 0 40 40" fill="none" xmlns="http://www.w3.org/2000/svg">
<path d="M23.125 33.75H21.875V27.625C21.875 27.4592 21.8092 27.3003 21.6919 27.1831C21.5747 27.0658 21.4158 27 21.25 27C21.0842 27 20.9253 27.0658 20.8081 27.1831C20.6908 27.3003 20.625 27.4592 20.625 27.625V33.75H4.375V21.25H9.575C9.74076 21.25 9.89973 21.1842 10.0169 21.0669C10.1342 20.9497 10.2 20.7908 10.2 20.625C10.2 20.4592 10.1342 20.3003 10.0169 20.1831C9.89973 20.0658 9.74076 20 9.575 20H3.75C3.58424 20 3.42527 20.0658 3.30806 20.1831C3.19085 20.3003 3.125 20.4592 3.125 20.625V33.75H1.875C1.70924 33.75 1.55027 33.8158 1.43306 33.9331C1.31585 34.0503 1.25 34.2092 1.25 34.375V35.625C1.25 36.4538 1.57924 37.2487 2.16529 37.8347C2.75134 38.4208 3.5462 38.75 4.375 38.75H20.625C21.4538 38.75 22.2487 38.4208 22.8347 37.8347C23.4208 37.2487 23.75 36.4538 23.75 35.625V34.375C23.75 34.2092 23.6842 34.0503 23.5669 33.9331C23.4497 33.8158 23.2908 33.75 23.125 33.75ZM22.5 35.625C22.5 36.1223 22.3025 36.5992 21.9508 36.9508C21.5992 37.3025 21.1223 37.5 20.625 37.5H19.375V36.875C19.375 36.7092 19.3092 36.5503 19.1919 36.4331C19.0747 36.3158 18.9158 36.25 18.75 36.25C18.5842 36.25 18.4253 36.3158 18.3081 36.4331C18.1908 36.5503 18.125 36.7092 18.125 36.875V37.5H6.875V36.875C6.875 36.7092 6.80915 36.5503 6.69194 36.4331C6.57473 36.3158 6.41576 36.25 6.25 36.25C6.08424 36.25 5.92527 36.3158 5.80806 36.4331C5.69085 36.5503 5.625 36.7092 5.625 36.875V37.5H4.375C3.87772 37.5 3.40081 37.3025 3.04917 36.9508C2.69754 36.5992 2.5 36.1223 2.5 35.625V35H22.5V35.625Z" fill="#FFB000"/>
<path d="M33.75 5H35C35.1658 5 35.3247 4.93415 35.4419 4.81694C35.5592 4.69973 35.625 4.54076 35.625 4.375C35.625 4.20924 35.5592 4.05027 35.4419 3.93306C35.3247 3.81585 35.1658 3.75 35 3.75H33.75C33.2527 3.75 32.7758 3.94754 32.4242 4.29917C32.0725 4.65081 31.875 5.12772 31.875 5.625V6.25H31.25C31.0842 6.25 30.9253 6.31585 30.8081 6.43306C30.6908 6.55027 30.625 6.70924 30.625 6.875C30.625 7.04076 30.6908 7.19973 30.8081 7.31694C30.9253 7.43415 31.0842 7.5 31.25 7.5H31.875V9.375C31.875 9.54076 31.9408 9.69973 32.0581 9.81694C32.1753 9.93415 32.3342 10 32.5 10C32.6658 10 32.8247 9.93415 32.9419 9.81694C33.0592 9.69973 33.125 9.54076 33.125 9.375V7.5H33.75C33.9158 7.5 34.0747 7.43415 34.1919 7.31694C34.3092 7.19973 34.375 7.04076 34.375 6.875C34.375 6.70924 34.3092 6.55027 34.1919 6.43306C34.0747 6.31585 33.9158 6.25 33.75 6.25H33.125V5.625C33.125 5.45924 33.1908 5.30027 33.3081 5.18306C33.4253 5.06585 33.5842 5 33.75 5Z" fill="#FFB000"/>
<path d="M36.875 1.25H29.375C28.8777 1.25 28.4008 1.44754 28.0492 1.79917C27.6975 2.15081 27.5 2.62772 27.5 3.125V4.375C27.5 4.54076 27.5658 4.69973 27.6831 4.81694C27.8003 4.93415 27.9592 5 28.125 5C28.2908 5 28.4497 4.93415 28.5669 4.81694C28.6842 4.69973 28.75 4.54076 28.75 4.375V3.125C28.75 2.95924 28.8158 2.80027 28.9331 2.68306C29.0503 2.56585 29.2092 2.5 29.375 2.5H36.875C37.0408 2.5 37.1997 2.56585 37.3169 2.68306C37.4342 2.80027 37.5 2.95924 37.5 3.125V10.625C37.5 10.7908 37.4342 10.9497 37.3169 11.0669C37.1997 11.1842 37.0408 11.25 36.875 11.25H29.375C29.2092 11.25 29.0503 11.1842 28.9331 11.0669C28.8158 10.9497 28.75 10.7908 28.75 10.625V6.875C28.75 6.70924 28.6842 6.55027 28.5669 6.43306C28.4497 6.31585 28.2908 6.25 28.125 6.25C27.9592 6.25 27.8003 6.31585 27.6831 6.43306C27.5658 6.55027 27.5 6.70924 27.5 6.875V10.625C27.5 11.1223 27.6975 11.5992 28.0492 11.9508C28.4008 12.3025 28.8777 12.5 29.375 12.5H36.875C37.3723 12.5 37.8492 12.3025 38.2008 11.9508C38.5525 11.5992 38.75 11.1223 38.75 10.625V3.125C38.75 2.62772 38.5525 2.15081 38.2008 1.79917C37.8492 1.44754 37.3723 1.25 36.875 1.25Z" fill="#FFB000"/>
<path d="M30.625 26.25C30.625 26.7445 30.7716 27.2278 31.0463 27.6389C31.321 28.0501 31.7115 28.3705 32.1683 28.5597C32.6251 28.7489 33.1278 28.7984 33.6127 28.702C34.0977 28.6055 34.5431 28.3674 34.8928 28.0178C35.2424 27.6681 35.4805 27.2227 35.577 26.7377C35.6734 26.2528 35.6239 25.7501 35.4347 25.2933C35.2455 24.8365 34.9251 24.446 34.5139 24.1713C34.1028 23.8966 33.6195 23.75 33.125 23.75C32.462 23.75 31.8261 24.0134 31.3572 24.4822C30.8884 24.9511 30.625 25.587 30.625 26.25ZM34.375 26.25C34.375 26.4972 34.3017 26.7389 34.1643 26.9445C34.027 27.15 33.8318 27.3102 33.6034 27.4049C33.375 27.4995 33.1236 27.5242 32.8811 27.476C32.6387 27.4278 32.4159 27.3087 32.2411 27.1339C32.0663 26.9591 31.9473 26.7363 31.899 26.4939C31.8508 26.2514 31.8755 26.0001 31.9702 25.7717C32.0648 25.5432 32.225 25.348 32.4305 25.2107C32.6361 25.0733 32.8778 25 33.125 25C33.4565 25 33.7745 25.1317 34.0089 25.3661C34.2433 25.6005 34.375 25.9185 34.375 26.25Z" fill="#FFB000"/>
<path d="M36.875 20.625H29.375C28.8777 20.625 28.4008 20.8225 28.0492 21.1742C27.6975 21.5258 27.5 22.0027 27.5 22.5V30C27.5 30.4973 27.6975 30.9742 28.0492 31.3258C28.4008 31.6775 28.8777 31.875 29.375 31.875H36.875C37.3723 31.875 37.8492 31.6775 38.2008 31.3258C38.5525 30.9742 38.75 30.4973 38.75 30V28.75C38.75 28.5842 38.6842 28.4253 38.5669 28.3081C38.4497 28.1908 38.2908 28.125 38.125 28.125C37.9592 28.125 37.8003 28.1908 37.6831 28.3081C37.5658 28.4253 37.5 28.5842 37.5 28.75V30C37.5 30.1658 37.4342 30.3247 37.3169 30.4419C37.1997 30.5592 37.0408 30.625 36.875 30.625H29.375C29.2092 30.625 29.0503 30.5592 28.9331 30.4419C28.8158 30.3247 28.75 30.1658 28.75 30V22.5C28.75 22.3342 28.8158 22.1753 28.9331 22.0581C29.0503 21.9408 29.2092 21.875 29.375 21.875H36.875C37.0408 21.875 37.1997 21.9408 37.3169 22.0581C37.4342 22.1753 37.5 22.3342 37.5 22.5V26.25C37.5 26.4158 37.5658 26.5747 37.6831 26.6919C37.8003 26.8092 37.9592 26.875 38.125 26.875C38.2908 26.875 38.4497 26.8092 38.5669 26.6919C38.6842 26.5747 38.75 26.4158 38.75 26.25V22.5C38.75 22.0027 38.5525 21.5258 38.2008 21.1742C37.8492 20.8225 37.3723 20.625 36.875 20.625Z" fill="#FFB000"/>
<path d="M15.2938 8.65632C15.3932 8.71796 15.508 8.75044 15.625 8.75007C15.7228 8.74948 15.8192 8.72593 15.9063 8.68132L19.6563 6.80631C19.7586 6.75387 19.8445 6.67418 19.9045 6.57604C19.9645 6.47789 19.9963 6.36509 19.9963 6.25006C19.9963 6.13503 19.9645 6.02224 19.9045 5.92409C19.8445 5.82595 19.7586 5.74626 19.6563 5.69381L15.9063 3.81881C15.8111 3.77087 15.7053 3.74804 15.5988 3.7525C15.4924 3.75696 15.3889 3.78856 15.2981 3.84429C15.2073 3.90002 15.1322 3.97804 15.08 4.07094C15.0279 4.16383 15.0003 4.26852 15 4.37506V8.12506C14.9998 8.23128 15.0266 8.3358 15.078 8.42875C15.1294 8.5217 15.2037 8.60002 15.2938 8.65632ZM16.25 5.38756L17.975 6.25006L16.25 7.11256V5.38756Z" fill="#FFB000"/>
<path d="M16.875 11.875C17.9875 11.875 19.0751 11.5451 20.0001 10.927C20.9251 10.3089 21.6461 9.43043 22.0718 8.4026C22.4976 7.37476 22.609 6.24376 22.3919 5.15262C22.1749 4.06148 21.6391 3.0592 20.8525 2.27253C20.0658 1.48586 19.0635 0.950127 17.9724 0.733085C16.8812 0.516043 15.7502 0.627437 14.7224 1.05318C13.6946 1.47892 12.8161 2.19989 12.198 3.12492C11.5799 4.04995 11.25 5.13748 11.25 6.25C11.25 7.74185 11.8426 9.17259 12.8975 10.2275C13.9524 11.2824 15.3832 11.875 16.875 11.875ZM16.875 1.875C17.7403 1.875 18.5862 2.13159 19.3056 2.61232C20.0251 3.09305 20.5858 3.77634 20.917 4.57576C21.2481 5.37519 21.3347 6.25486 21.1659 7.10352C20.9971 7.95219 20.5804 8.73174 19.9686 9.34359C19.3567 9.95545 18.5772 10.3721 17.7285 10.5409C16.8799 10.7097 16.0002 10.6231 15.2008 10.292C14.4013 9.96084 13.7181 9.40009 13.2373 8.68062C12.7566 7.96116 12.5 7.1153 12.5 6.25C12.5 5.08968 12.9609 3.97688 13.7814 3.15641C14.6019 2.33594 15.7147 1.875 16.875 1.875Z" fill="#FFB000"/>
<path d="M23.125 14.375C23.222 14.375 23.3177 14.3524 23.4045 14.309C23.4913 14.2656 23.5668 14.2026 23.625 14.125L25.5 11.625C25.5994 11.4924 25.6421 11.3257 25.6187 11.1616C25.5953 10.9975 25.5076 10.8495 25.375 10.75C25.2424 10.6505 25.0757 10.6078 24.9116 10.6313C24.7475 10.6547 24.5994 10.7424 24.5 10.875L22.625 13.375C22.5255 13.5076 22.4828 13.6743 22.5063 13.8384C22.5297 14.0025 22.6174 14.1506 22.75 14.25C22.8582 14.3311 22.9898 14.375 23.125 14.375Z" fill="#FFB000"/>
<path d="M24.5 16.625C24.5582 16.7026 24.6337 16.7656 24.7205 16.809C24.8073 16.8524 24.903 16.875 25 16.875C25.1352 16.875 25.2668 16.8311 25.375 16.75L27.875 14.875C28.0076 14.7755 28.0953 14.6275 28.1187 14.4634C28.1421 14.2993 28.0994 14.1326 28 14C27.9005 13.8674 27.7525 13.7797 27.5884 13.7563C27.4243 13.7328 27.2576 13.7755 27.125 13.875L24.625 15.75C24.4924 15.8495 24.4047 15.9975 24.3813 16.1616C24.3578 16.3257 24.4005 16.4924 24.5 16.625Z" fill="#FFB000"/>
<path d="M30.6252 18.0001C30.6103 17.9172 30.5789 17.8382 30.5328 17.7678C30.4866 17.6974 30.4267 17.637 30.3567 17.5903C30.2866 17.5436 30.2079 17.5116 30.1251 17.4961C30.0424 17.4805 29.9574 17.4819 29.8752 17.5001L26.7502 18.1251C26.6681 18.1333 26.5885 18.1576 26.5158 18.1966C26.4431 18.2355 26.3788 18.2885 26.3266 18.3523C26.2211 18.4812 26.1711 18.6468 26.1877 18.8126C26.2043 18.9783 26.286 19.1307 26.4149 19.2362C26.5439 19.3417 26.7094 19.3916 26.8752 19.3751H27.0002L30.1252 18.7501C30.208 18.7352 30.2871 18.7038 30.3575 18.6576C30.4279 18.6115 30.4882 18.5516 30.5349 18.4816C30.5816 18.4115 30.6137 18.3328 30.6292 18.25C30.6447 18.1673 30.6433 18.0823 30.6252 18.0001Z" fill="#FFB000"/>
<path d="M1.875 18.125H9.375C9.54076 18.125 9.69973 18.0592 9.81694 17.9419C9.93415 17.8247 10 17.6658 10 17.5V7.5C10 7.33424 9.93415 7.17527 9.81694 7.05806C9.69973 6.94085 9.54076 6.875 9.375 6.875H1.875C1.70924 6.875 1.55027 6.94085 1.43306 7.05806C1.31585 7.17527 1.25 7.33424 1.25 7.5V17.5C1.25 17.6658 1.31585 17.8247 1.43306 17.9419C1.55027 18.0592 1.70924 18.125 1.875 18.125ZM2.5 8.125H8.75V16.875H2.5V8.125Z" fill="#FFB000"/>
<path d="M6.875 9.375H5.625C5.45924 9.375 5.30027 9.44085 5.18306 9.55806C5.06585 9.67527 5 9.83424 5 10C5 10.1658 5.06585 10.3247 5.18306 10.4419C5.30027 10.5592 5.45924 10.625 5.625 10.625H6.875C7.04076 10.625 7.19973 10.5592 7.31694 10.4419C7.43415 10.3247 7.5 10.1658 7.5 10C7.5 9.83424 7.43415 9.67527 7.31694 9.55806C7.19973 9.44085 7.04076 9.375 6.875 9.375Z" fill="#FFB000"/>
<path d="M6.875 11.875H4.375C4.20924 11.875 4.05027 11.9408 3.93306 12.0581C3.81585 12.1753 3.75 12.3342 3.75 12.5C3.75 12.6658 3.81585 12.8247 3.93306 12.9419C4.05027 13.0592 4.20924 13.125 4.375 13.125H6.875C7.04076 13.125 7.19973 13.0592 7.31694 12.9419C7.43415 12.8247 7.5 12.6658 7.5 12.5C7.5 12.3342 7.43415 12.1753 7.31694 12.0581C7.19973 11.9408 7.04076 11.875 6.875 11.875Z" fill="#FFB000"/>
<path d="M6.875 14.375H4.375C4.20924 14.375 4.05027 14.4408 3.93306 14.5581C3.81585 14.6753 3.75 14.8342 3.75 15C3.75 15.1658 3.81585 15.3247 3.93306 15.4419C4.05027 15.5592 4.20924 15.625 4.375 15.625H6.875C7.04076 15.625 7.19973 15.5592 7.31694 15.4419C7.43415 15.3247 7.5 15.1658 7.5 15C7.5 14.8342 7.43415 14.6753 7.31694 14.5581C7.19973 14.4408 7.04076 14.375 6.875 14.375Z" fill="#FFB000"/>
<path d="M22.5753 17.9378C22.5342 17.8664 22.4795 17.8037 22.4143 17.7535C22.349 17.7032 22.2745 17.6663 22.195 17.6448C22.1155 17.6233 22.0326 17.6177 21.9509 17.6283C21.8692 17.6389 21.7904 17.6655 21.719 17.7065C21.6476 17.7476 21.585 17.8023 21.5347 17.8675C21.4844 17.9327 21.4475 18.0072 21.4261 18.0867C21.4046 18.1663 21.399 18.2492 21.4096 18.3309C21.4202 18.4126 21.4467 18.4914 21.4878 18.5628L24.244 23.3315L14.244 27.0815C14.244 27.0815 14.244 27.0815 14.2003 27.0815H14.1503L12.5253 28.019L11.444 28.644C11.3017 28.7263 11.1445 28.7797 10.9815 28.8012C10.8184 28.8226 10.6528 28.8117 10.494 28.769C10.175 28.6828 9.90311 28.4739 9.73776 28.1878L8.48776 26.0253C8.3407 25.7423 8.30733 25.4139 8.39447 25.1072C8.48161 24.8005 8.68267 24.5386 8.95651 24.3753L11.119 23.1253L12.6815 25.8315C12.7366 25.9269 12.8159 26.006 12.9114 26.0609C13.0068 26.1158 13.1151 26.1445 13.2253 26.144C13.3352 26.1445 13.4433 26.1159 13.5386 26.0612C13.634 26.0065 13.7132 25.9277 13.7684 25.8326C13.8235 25.7375 13.8526 25.6296 13.8527 25.5196C13.8529 25.4097 13.824 25.3017 13.769 25.2065L12.1565 22.419L20.0003 15.9503L20.2565 16.394C20.2975 16.4654 20.3523 16.528 20.4175 16.5783C20.4827 16.6286 20.5572 16.6655 20.6367 16.687C20.7163 16.7085 20.7992 16.7141 20.8809 16.7035C20.9626 16.6929 21.0414 16.6663 21.1128 16.6253C21.1842 16.5842 21.2468 16.5295 21.2971 16.4643C21.3473 16.399 21.3842 16.3245 21.4057 16.245C21.4272 16.1655 21.4328 16.0826 21.4222 16.0009C21.4116 15.9192 21.3851 15.8404 21.344 15.769L20.719 14.6878C20.6732 14.6095 20.6109 14.5421 20.5364 14.4903C20.462 14.4385 20.3771 14.4035 20.2878 14.3878C20.1979 14.3708 20.1055 14.3738 20.0169 14.3965C19.9284 14.4192 19.8459 14.461 19.7753 14.519L11.0253 21.7315L8.36276 23.269C7.88496 23.5473 7.5129 23.9762 7.30481 24.4885C7.09673 25.0008 7.06435 25.5676 7.21276 26.1003L6.58776 26.4565C6.26573 26.6414 6.00587 26.9178 5.84112 27.2506C5.67637 27.5834 5.61415 27.9577 5.66235 28.3259C5.71055 28.6941 5.867 29.0397 6.11187 29.3189C6.35673 29.598 6.67898 29.7982 7.03776 29.894C7.19682 29.9362 7.36072 29.9572 7.52526 29.9565C7.85406 29.9552 8.17695 29.8691 8.46276 29.7065L9.08776 29.3503C9.38799 29.6604 9.76557 29.8848 10.1815 30.0003C10.3951 30.06 10.616 30.0895 10.8378 30.0878C11.2771 30.0888 11.7087 29.9723 12.0878 29.7503L12.6315 29.4378L13.8815 31.6065C14.1299 32.036 14.5385 32.3495 15.0176 32.4784C15.4967 32.6073 16.0074 32.541 16.4378 32.294C16.6513 32.171 16.8384 32.0071 16.9885 31.8117C17.1387 31.6163 17.2488 31.3933 17.3126 31.1553C17.3765 30.9173 17.3928 30.669 17.3607 30.4247C17.3285 30.1804 17.2485 29.9449 17.1253 29.7315L15.9878 27.7503L25.3628 24.2315C25.4478 24.1996 25.5248 24.1495 25.5885 24.0847C25.6522 24.0199 25.701 23.9421 25.7315 23.8565C25.7619 23.772 25.7738 23.6819 25.7662 23.5924C25.7587 23.5028 25.7319 23.416 25.6878 23.3378L22.5753 17.9378ZM7.81276 28.619C7.74159 28.6602 7.663 28.6869 7.58149 28.6976C7.49998 28.7083 7.41716 28.7029 7.33776 28.6815C7.17764 28.6399 7.04053 28.5365 6.95651 28.394C6.91537 28.3228 6.88867 28.2443 6.87794 28.1627C6.86722 28.0812 6.87268 27.9984 6.89401 27.919C6.91535 27.8392 6.9523 27.7644 7.00272 27.699C7.05314 27.6335 7.11603 27.5787 7.18776 27.5378L7.73151 27.2253L8.35651 28.3065L7.81276 28.619ZM16.0378 30.369C16.0789 30.4402 16.1056 30.5188 16.1163 30.6003C16.1271 30.6818 16.1216 30.7646 16.1003 30.844C16.0557 31.0029 15.9501 31.1377 15.8065 31.219C15.6638 31.301 15.4944 31.3234 15.3353 31.2813C15.1761 31.2391 15.04 31.1359 14.9565 30.994L13.7065 28.8253L14.744 28.2315H14.794L16.0378 30.369Z" fill="#FFB000"/>
</svg>
