<svg width="40" height="40" viewBox="0 0 40 40" fill="none" xmlns="http://www.w3.org/2000/svg">
<g clip-path="url(#clip0)">
<path d="M26.0582 23.4101V29.7937C26.0582 30.118 26.3211 30.3809 26.6453 30.3809C26.9695 30.3809 27.2324 30.118 27.2324 29.7937V22.9857C27.2324 22.7259 27.0617 22.497 26.8126 22.423C25.4831 22.0275 24.287 21.1973 23.4447 20.0852C22.5747 18.9364 22.1147 17.5652 22.1147 16.1198C22.1147 12.4941 25.0645 9.5443 28.6903 9.5443C29.3676 9.5443 30.0306 9.64742 30.6599 9.84445C30.4827 10.5206 30.2044 11.1612 29.8393 11.747C29.5035 11.5882 29.1286 11.499 28.7332 11.499C27.3013 11.499 26.1363 12.6639 26.1363 14.0959C26.1363 15.5277 27.3012 16.6927 28.7332 16.6927C30.1651 16.6927 31.3301 15.5277 31.3301 14.0959C31.3301 13.4857 31.118 12.9245 30.7645 12.4808C31.1979 11.8103 31.5317 11.0756 31.752 10.299C32.5194 10.703 33.2087 11.2602 33.7757 11.951C33.9814 12.2016 34.3514 12.238 34.602 12.0323C34.8526 11.8266 34.889 11.4566 34.6833 11.2059C33.9411 10.3017 33.0213 9.59102 31.9948 9.10727C32.0372 8.77203 32.0601 8.43195 32.0601 8.08789C32.0601 3.62828 28.4319 0 23.9721 0C19.5123 0 15.8841 3.62828 15.8841 8.08797C15.8841 9.30172 16.1597 10.5052 16.6819 11.5921C15.0434 14.022 14.8984 17.2288 16.3905 19.8071L11.0035 25.1941C10.7742 25.4235 10.7742 25.7952 11.0035 26.0245C11.2328 26.2538 11.6045 26.2538 11.8338 26.0245L17.55 20.3084C17.7478 20.1105 17.7786 19.8006 17.6235 19.5678C15.8959 16.9731 16.2445 13.4875 18.4523 11.2798C20.079 9.65312 22.4307 9.01805 24.6156 9.53078C23.8415 10.0112 23.1577 10.6237 22.5965 11.3371C21.5535 11.4514 20.5812 11.9151 19.8344 12.6618C18.0327 14.4635 18.0327 17.3951 19.8344 19.1969C20.5089 19.8713 21.3501 20.3091 22.2805 20.4751C22.354 20.5828 22.4294 20.6896 22.5087 20.7943C22.9797 21.4161 23.5454 21.9623 24.1767 22.4153C22.5479 22.6846 20.8572 22.3359 19.4629 21.4075C19.23 21.2525 18.9201 21.2831 18.7223 21.4809L13.3417 26.8616C13.1124 27.0909 13.1124 27.4626 13.3417 27.6919L14.6135 28.9637C14.9351 29.2723 14.9351 29.8276 14.6134 30.1362C14.3048 30.4577 13.7495 30.4578 13.441 30.1361L12.1692 28.8643C11.9399 28.6351 11.5682 28.6351 11.3389 28.8643L9.81576 30.3874C9.58834 30.6061 9.58834 30.9991 9.81576 31.2178L11.0875 32.4895C11.4108 32.8127 11.4108 33.3387 11.0876 33.662C10.7643 33.9853 10.2383 33.9852 9.91514 33.662L8.64334 32.3901C8.41404 32.1609 8.04232 32.1609 7.81303 32.3901L6.14717 34.0559C5.82389 34.3792 5.29795 34.3791 4.97475 34.056C4.65146 33.7327 4.65146 33.2067 4.97475 32.8835L10.1732 27.6851C10.4025 27.4557 10.4025 27.0841 10.1732 26.8547C9.94389 26.6255 9.57217 26.6255 9.34287 26.8547L4.14436 32.0532C3.36334 32.8342 3.36334 34.1052 4.14436 34.8863C4.92545 35.6673 6.19631 35.6673 6.9774 34.8863L8.22811 33.6356L9.08482 34.4923C9.86584 35.2733 11.1368 35.2734 11.9179 34.4923C12.6989 33.7113 12.6989 32.4403 11.9179 31.6591L11.0612 30.8026L11.754 30.1098L12.6107 30.9663C13.3564 31.7436 14.6981 31.7435 15.4438 30.9664C16.2209 30.2208 16.221 28.8789 15.4438 28.1334L14.5872 27.2766L19.2236 22.6402C21.1654 23.7635 23.5181 23.9891 25.6505 23.2475C25.785 23.3052 25.9206 23.3602 26.0582 23.4101ZM28.7332 12.6732C28.8613 12.6732 28.985 12.6918 29.1032 12.7237C28.5959 13.2853 27.9934 13.7665 27.3129 14.1419C27.3124 14.1264 27.3105 14.1113 27.3105 14.0958C27.3105 13.3114 27.9487 12.6732 28.7332 12.6732ZM30.1558 14.0959C30.1558 14.8803 29.5176 15.5185 28.7332 15.5185C28.3916 15.5185 28.0779 15.3973 27.8324 15.1959C28.6638 14.7446 29.3977 14.1594 30.0101 13.4725C30.1024 13.661 30.1558 13.8721 30.1558 14.0959ZM17.622 10.4494C17.5854 10.486 17.5506 10.5239 17.5148 10.5612C17.2149 9.77586 17.0583 8.93492 17.0583 8.08805C17.0583 4.27578 20.1597 1.1743 23.972 1.1743C27.7843 1.1743 30.8858 4.27578 30.8858 8.08805C30.8858 8.28648 30.8764 8.48328 30.8597 8.67852C30.1635 8.47617 29.4343 8.37016 28.6901 8.37016C27.7984 8.37016 26.9416 8.52203 26.1436 8.80047C23.2517 7.56766 19.8564 8.21492 17.622 10.4494ZM21.6974 12.7813C21.4533 13.2905 21.2633 13.8304 21.1347 14.3934C20.8427 14.2618 20.5598 14.1109 20.2883 13.9395C20.3994 13.7826 20.5242 13.6325 20.6647 13.492C20.9658 13.1909 21.3162 12.9514 21.6974 12.7813ZM20.6647 18.3664C19.7562 17.4579 19.4628 16.1643 19.7828 15.0062C20.1584 15.2341 20.5513 15.4306 20.9588 15.5942C20.9471 15.768 20.9406 15.9432 20.9406 16.1199C20.9406 17.1123 21.1259 18.0746 21.4824 18.9733C21.1847 18.8148 20.91 18.6116 20.6647 18.3664Z" fill="#FFB000"/>
<path d="M35.9517 13.4091C35.8382 13.1053 35.5 12.9512 35.1962 13.0646C34.8925 13.1781 34.7382 13.5163 34.8517 13.8201C35.1261 14.5546 35.2652 15.3286 35.2652 16.1206C35.2652 18.9753 33.4432 21.4878 30.7312 22.3727C30.4896 22.4515 30.3262 22.6767 30.3262 22.9308V26.1907L28.6631 27.4805C28.3632 27.7009 28.3632 28.188 28.6631 28.4084L29.9553 29.4105L28.663 30.4127C28.3632 30.6331 28.3632 31.1202 28.663 31.3406L29.9552 32.3427L28.663 33.3448C28.3631 33.5652 28.3632 34.0523 28.663 34.2727L30.3261 35.5624V36.9713L28.7105 38.5718L27.2318 36.9851V32.1429C27.2318 31.8186 26.9689 31.5558 26.6447 31.5558C26.3205 31.5558 26.0576 31.8186 26.0576 32.1429V37.2163C26.0576 37.3648 26.1139 37.5078 26.2152 37.6166L28.2643 39.8154C28.4791 40.0555 28.8826 40.0636 29.107 39.8322L31.3266 37.6334C31.4379 37.5231 31.5005 37.3729 31.5005 37.2163V35.2749C31.5005 35.0935 31.4166 34.9222 31.2732 34.811L29.981 33.8088L31.2732 32.8067C31.5731 32.5863 31.573 32.0992 31.2732 31.8788L29.981 30.8767L31.2732 29.8746C31.5731 29.6542 31.573 29.1671 31.2732 28.9467L29.981 27.9446L31.2732 26.9424C31.4166 26.8312 31.5005 26.6599 31.5005 26.4785V23.3445C34.472 22.1915 36.4395 19.3408 36.4395 16.1206C36.4394 15.1878 36.2753 14.2755 35.9517 13.4091Z" fill="#FFB000"/>
</g>
<defs>
<clipPath id="clip0">
<rect width="40" height="40" fill="white"/>
</clipPath>
</defs>
</svg>
