<svg width="40" height="40" viewBox="0 0 40 40" fill="none" xmlns="http://www.w3.org/2000/svg">
<g clip-path="url(#clip0)">
<path d="M39.4141 33.8182H38.1213V13.7376C38.1213 13.0691 37.5775 12.5254 36.9091 12.5254H33.1515C32.483 12.5254 31.9393 13.0691 31.9393 13.7376V18.7475C31.9393 19.0711 32.2016 19.3334 32.5252 19.3334C32.8488 19.3334 33.1112 19.0711 33.1112 18.7475V17.4548H36.9494V33.8182H33.1112V21.2527C33.1112 20.9291 32.8488 20.6667 32.5252 20.6667C32.2016 20.6667 31.9393 20.9291 31.9393 21.2527V33.8181H28.1011V25.0102C28.1011 24.3418 27.5573 23.798 26.8889 23.798H23.1313C22.4629 23.798 21.9191 24.3418 21.9191 25.0102V33.8182H18.0809V21.2527C18.0809 20.5842 17.5372 20.0405 16.8687 20.0405H13.1112C12.4427 20.0405 11.899 20.5842 11.899 21.2527V26.2626C11.899 26.5862 12.1613 26.8485 12.4849 26.8485C12.8085 26.8485 13.0709 26.5862 13.0709 26.2626V24.9698H16.9091V33.8181H13.0709V28.7676C13.0709 28.444 12.8085 28.1816 12.4849 28.1816C12.1613 28.1816 11.899 28.444 11.899 28.7676V33.8181H8.06078V29.394C8.06078 28.7255 7.51703 28.1818 6.84859 28.1818H3.09094C2.4225 28.1818 1.87875 28.7255 1.87875 29.394V33.8181H0.585938C0.262344 33.8181 0 34.0805 0 34.4041C0 34.7277 0.262344 34.99 0.585938 34.99H39.4141C39.7377 34.99 40 34.7277 40 34.4041C40 34.0805 39.7377 33.8182 39.4141 33.8182ZM33.1112 16.2829V13.7375C33.1112 13.7152 33.1292 13.6972 33.1515 13.6972H36.9091C36.9313 13.6972 36.9494 13.7152 36.9494 13.7375V16.2829H33.1112ZM13.0709 23.798V21.2526C13.0709 21.2303 13.0889 21.2123 13.1112 21.2123H16.8687C16.891 21.2123 16.9091 21.2303 16.9091 21.2526V23.798H13.0709ZM23.1313 24.9698H26.8889C26.9112 24.9698 26.9292 24.9879 26.9292 25.0102V26.303H23.091V25.0102C23.0909 24.988 23.1091 24.9698 23.1313 24.9698ZM23.0909 27.4749H26.9291V33.8182H23.0909V27.4749ZM3.09094 29.3537H6.84852C6.87078 29.3537 6.88883 29.3717 6.88883 29.394V30.6869H3.05063V29.394C3.05063 29.3718 3.06875 29.3537 3.09094 29.3537ZM3.05063 31.8587H6.88883V33.8182H3.05063V31.8587Z" fill="#FFB000"/>
<path d="M1.21189 26.8482C1.36182 26.8482 1.51182 26.7911 1.62619 26.6766L13.8921 14.4108C14.0179 14.2849 14.1853 14.2156 14.3634 14.2156C14.5414 14.2156 14.7088 14.2849 14.8347 14.4108L19.9522 19.5283C20.2994 19.8756 20.7611 20.0668 21.2522 20.0668C21.7433 20.0668 22.2049 19.8756 22.5522 19.5283L34.8276 7.25301L34.4499 9.89668C34.4042 10.2171 34.6268 10.5138 34.9471 10.5596C34.9753 10.5636 35.0031 10.5655 35.0307 10.5655C35.3176 10.5655 35.5683 10.3546 35.6101 10.0624L36.2364 5.67855C36.2624 5.49597 36.201 5.31175 36.0706 5.18136C35.9402 5.05097 35.7561 4.98972 35.5734 5.01558L31.1896 5.64191C30.8692 5.68769 30.6466 5.98449 30.6924 6.3048C30.7381 6.62519 31.0352 6.84761 31.3553 6.80199L33.9989 6.42433L21.7235 18.6997C21.5977 18.8256 21.4303 18.895 21.2522 18.895C21.0742 18.895 20.9067 18.8257 20.7809 18.6997L15.6634 13.5822C15.3161 13.235 14.8545 13.0437 14.3634 13.0437C13.8723 13.0437 13.4106 13.235 13.0634 13.5822L0.797598 25.848C0.56877 26.0768 0.56877 26.4479 0.797598 26.6766C0.911973 26.7911 1.06197 26.8482 1.21189 26.8482Z" fill="#FFB000"/>
</g>
<defs>
<clipPath id="clip0">
<rect width="40" height="40" fill="white"/>
</clipPath>
</defs>
</svg>
