<svg width="40" height="40" viewBox="0 0 40 40" fill="none" xmlns="http://www.w3.org/2000/svg">
<g clip-path="url(#clip0)">
<path d="M38.3907 20.4055H32.2566V7.27211C32.2566 6.94828 31.9941 6.68586 31.6704 6.68586C31.3466 6.68586 31.0841 6.94828 31.0841 7.27211V7.7382H7.51606C7.19231 7.7382 6.9298 8.00062 6.9298 8.32445C6.9298 8.64828 7.19231 8.9107 7.51606 8.9107H31.0842V28.4901C31.0842 28.5979 30.9965 28.6855 30.8888 28.6855H1.7477C1.63996 28.6855 1.5523 28.5978 1.5523 28.4901V8.91063H4.58668C4.91043 8.91063 5.17293 8.6482 5.17293 8.32438C5.17293 8.00055 4.91043 7.73812 4.58668 7.73812H1.5523V1.36781C1.5523 1.26 1.63996 1.17242 1.7477 1.17242H30.8887C30.9964 1.17242 31.0841 1.26008 31.0841 1.36781V4.35516C31.0841 4.67898 31.3466 4.94141 31.6704 4.94141C31.9941 4.94141 32.2566 4.67898 32.2566 4.35516V1.36789C32.2566 0.613594 31.6429 0 30.8887 0H1.7477C0.993477 0 0.379883 0.613594 0.379883 1.36789V28.49C0.379883 29.2442 0.993477 29.8579 1.74777 29.8579H7.7434V38.6322C7.7434 39.3864 8.35699 40.0001 9.11129 40.0001H14.2096C14.5334 40.0001 14.7959 39.7377 14.7959 39.4138C14.7959 39.09 14.5334 38.8276 14.2096 38.8276H9.11129C9.00355 38.8276 8.9159 38.7399 8.9159 38.6322V29.8578H30.8889C31.4032 29.8578 31.8517 29.5722 32.0852 29.1516L38.4477 21.7705V38.6321C38.4477 38.7399 38.36 38.8275 38.2523 38.8275H17.1021C16.7784 38.8275 16.5159 39.0899 16.5159 39.4137C16.5159 39.7376 16.7784 40 17.1021 40H38.2522C39.0064 40 39.6201 39.3864 39.6201 38.6321V21.635C39.62 20.9571 39.0686 20.4055 38.3907 20.4055ZM37.0657 21.578L32.2566 27.157V21.578H37.0657Z" fill="#FFB000"/>
<path d="M4.71344 5.57629C5.34477 5.57629 5.85656 5.0645 5.85656 4.43317C5.85656 3.80183 5.34477 3.29004 4.71344 3.29004C4.08211 3.29004 3.57031 3.80183 3.57031 4.43317C3.57031 5.0645 4.08211 5.57629 4.71344 5.57629Z" fill="#FFB000"/>
<path d="M8.18902 5.57629C8.82035 5.57629 9.33215 5.0645 9.33215 4.43317C9.33215 3.80183 8.82035 3.29004 8.18902 3.29004C7.55769 3.29004 7.0459 3.80183 7.0459 4.43317C7.0459 5.0645 7.55769 5.57629 8.18902 5.57629Z" fill="#FFB000"/>
<path d="M11.6656 5.57629C12.2969 5.57629 12.8087 5.0645 12.8087 4.43317C12.8087 3.80183 12.2969 3.29004 11.6656 3.29004C11.0343 3.29004 10.5225 3.80183 10.5225 4.43317C10.5225 5.0645 11.0343 5.57629 11.6656 5.57629Z" fill="#FFB000"/>
<path d="M4.37371 11.6702C4.12879 11.7465 3.96191 11.9733 3.96191 12.2298V18.0271C3.96191 18.3509 4.22441 18.6134 4.54816 18.6134C4.87191 18.6134 5.13441 18.3509 5.13441 18.0271V14.1104L7.98566 18.2393C8.16355 18.4962 8.45785 18.6059 8.73566 18.5193C9.02035 18.4303 9.20441 18.1603 9.20434 17.8258L9.15004 12.2134C9.14691 11.8916 8.88512 11.6328 8.56394 11.6328C8.56207 11.6328 8.56012 11.6328 8.55816 11.6328C8.23441 11.6359 7.97457 11.9009 7.97769 12.2247L8.01637 16.2205L5.03051 11.8967C4.88473 11.6856 4.61855 11.5938 4.37371 11.6702Z" fill="#FFB000"/>
<path d="M13.6821 12.8571C14.0059 12.8571 14.2684 12.5946 14.2684 12.2708C14.2684 11.947 14.0059 11.6846 13.6821 11.6846H11.2571C10.9334 11.6846 10.6709 11.947 10.6709 12.2708V18.0259C10.6709 18.3497 10.9334 18.6121 11.2571 18.6121H13.6821C14.0059 18.6121 14.2684 18.3497 14.2684 18.0259C14.2684 17.7021 14.0059 17.4396 13.6821 17.4396H11.8434V15.7346H13.5033C13.8271 15.7346 14.0896 15.4722 14.0896 15.1484C14.0896 14.8246 13.8271 14.5621 13.5033 14.5621H11.8434V12.8571H13.6821Z" fill="#FFB000"/>
<path d="M25.7469 17.4667C25.1308 17.4667 24.5366 17.2169 24.1573 16.7983C23.94 16.5584 23.5693 16.5402 23.3293 16.7576C23.0894 16.9751 23.0711 17.3457 23.2886 17.5856C23.8864 18.2453 24.8054 18.6391 25.7469 18.6391C26.8845 18.6391 27.876 17.8902 28.0533 16.8972C28.188 16.143 27.8385 15.1553 26.4541 14.6446C25.7181 14.3731 25.0345 14.0769 24.8493 13.9956C24.6885 13.8744 24.6108 13.6833 24.6405 13.4765C24.6791 13.2078 24.8884 12.9912 25.2005 12.8972C26.0953 12.6279 26.9099 13.278 26.9278 13.2925C27.1757 13.4986 27.5437 13.466 27.7514 13.219C27.9596 12.9711 27.9276 12.6013 27.6798 12.3929C27.6274 12.3489 26.3778 11.3182 24.8623 11.7745C24.1132 12.0001 23.5835 12.5885 23.4799 13.3099C23.379 14.0083 23.7041 14.7048 24.3227 15.0447C24.3561 15.0596 25.1519 15.4137 26.0483 15.7444C26.6564 15.9688 26.9664 16.3137 26.8991 16.6909C26.831 17.0723 26.3814 17.4667 25.7469 17.4667Z" fill="#FFB000"/>
<path d="M22.1845 11.6803C21.8669 11.6168 21.5584 11.8232 21.4951 12.1408L20.7142 16.0648L19.4841 12.072C19.4806 12.0606 19.4753 12.0503 19.4691 12.0406C19.4062 11.8809 19.2741 11.7499 19.0973 11.6951C18.788 11.5996 18.4596 11.7726 18.3639 12.0818L17.131 16.065L16.3528 12.1308C16.29 11.8132 15.9816 11.6066 15.664 11.6695C15.3464 11.7323 15.1398 12.0406 15.2027 12.3583L16.3343 18.0792C16.4028 18.406 16.7053 18.6428 17.0377 18.6389C17.3429 18.6369 17.6138 18.4413 17.712 18.1524C17.7137 18.1474 17.7154 18.1422 17.717 18.1371L18.9243 14.2367L20.1262 18.1381C20.1286 18.146 20.1312 18.1539 20.134 18.1617C20.2355 18.4477 20.5067 18.6389 20.8099 18.6389C21.1416 18.6406 21.4404 18.4036 21.509 18.0782L22.6451 12.3696C22.7082 12.0521 22.502 11.7435 22.1845 11.6803Z" fill="#FFB000"/>
<path d="M3.83496 21.2738C3.83496 21.5976 4.09746 21.86 4.42121 21.86H13.9747C14.2985 21.86 14.561 21.5976 14.561 21.2738C14.561 20.9499 14.2985 20.6875 13.9747 20.6875H4.42121C4.09746 20.6875 3.83496 20.9499 3.83496 21.2738Z" fill="#FFB000"/>
<path d="M13.9746 23.3984H4.42121C4.09746 23.3984 3.83496 23.6609 3.83496 23.9847C3.83496 24.3085 4.09746 24.5709 4.42121 24.5709H13.9747C14.2985 24.5709 14.561 24.3085 14.561 23.9847C14.5609 23.6609 14.2985 23.3984 13.9746 23.3984Z" fill="#FFB000"/>
<path d="M16.9941 21.2738C16.9941 21.5976 17.2566 21.86 17.5804 21.86H27.1339C27.4577 21.86 27.7202 21.5976 27.7202 21.2738C27.7202 20.9499 27.4577 20.6875 27.1339 20.6875H17.5804C17.2566 20.6875 16.9941 20.9499 16.9941 21.2738Z" fill="#FFB000"/>
<path d="M27.1338 23.3984H17.5804C17.2566 23.3984 16.9941 23.6609 16.9941 23.9847C16.9941 24.3085 17.2566 24.5709 17.5804 24.5709H27.1339C27.4577 24.5709 27.7202 24.3085 27.7202 23.9847C27.7201 23.6609 27.4577 23.3984 27.1338 23.3984Z" fill="#FFB000"/>
<path d="M12.3255 32.7116H21.879C22.2028 32.7116 22.4653 32.4491 22.4653 32.1253C22.4653 31.8015 22.2028 31.5391 21.879 31.5391H12.3255C12.0018 31.5391 11.7393 31.8015 11.7393 32.1253C11.7393 32.4491 12.0017 32.7116 12.3255 32.7116Z" fill="#FFB000"/>
<path d="M12.3255 35.4225H21.879C22.2028 35.4225 22.4653 35.1601 22.4653 34.8363C22.4653 34.5124 22.2028 34.25 21.879 34.25H12.3255C12.0018 34.25 11.7393 34.5124 11.7393 34.8363C11.7393 35.1601 12.0017 35.4225 12.3255 35.4225Z" fill="#FFB000"/>
<path d="M25.4847 32.7116H35.0382C35.362 32.7116 35.6245 32.4491 35.6245 32.1253C35.6245 31.8015 35.362 31.5391 35.0382 31.5391H25.4847C25.1609 31.5391 24.8984 31.8015 24.8984 32.1253C24.8984 32.4491 25.1609 32.7116 25.4847 32.7116Z" fill="#FFB000"/>
<path d="M25.4847 35.4225H35.0382C35.362 35.4225 35.6245 35.1601 35.6245 34.8363C35.6245 34.5124 35.362 34.25 35.0382 34.25H25.4847C25.1609 34.25 24.8984 34.5124 24.8984 34.8363C24.8984 35.1601 25.1609 35.4225 25.4847 35.4225Z" fill="#FFB000"/>
</g>
<defs>
<clipPath id="clip0">
<rect width="40" height="40" fill="white"/>
</clipPath>
</defs>
</svg>
