<svg width="40" height="40" viewBox="0 0 40 40" fill="none" xmlns="http://www.w3.org/2000/svg">
<g clip-path="url(#clip0)">
<path d="M35.4925 4.50353C29.5214 -1.48419 19.8268 -1.4977 13.839 4.47349C8.0615 10.235 7.81705 19.5149 13.2831 25.5727L12.1138 26.742C11.1691 25.7972 9.63733 25.797 8.69252 26.7417C8.69241 26.7418 8.69231 26.7419 8.69221 26.742L0.708724 34.7255C-0.23609 35.6702 -0.236292 37.202 0.708421 38.1468C0.708522 38.1469 0.708623 38.147 0.708724 38.1471L1.84899 39.2873C2.7937 40.2318 4.32508 40.2318 5.2698 39.2873L13.2533 31.3039C14.1981 30.3591 14.1983 28.8274 13.2536 27.8826C13.2535 27.8825 13.2534 27.8824 13.2533 27.8822L14.4226 26.7129C20.6965 32.3827 30.3787 31.8929 36.0485 25.6192C41.525 19.5591 41.2804 10.2671 35.4925 4.50353ZM12.1138 30.1628L4.13033 38.1463C3.81543 38.4611 3.30497 38.4611 2.99007 38.1463L1.8498 37.0052C1.5355 36.6904 1.5355 36.1805 1.8498 35.8657L9.83329 27.8822C10.1522 27.5773 10.6546 27.5773 10.9736 27.8822L12.1138 29.0233C12.4281 29.3381 12.4281 29.848 12.1138 30.1628ZM34.3531 25.0316C28.9993 30.3852 20.3192 30.3851 14.9656 25.0313C9.61203 19.6775 9.61213 10.9974 14.9659 5.6438C20.3196 0.290324 28.9994 0.290324 34.3531 5.6438C39.6981 11.0012 39.6981 19.6742 34.3531 25.0316Z" fill="#FFB000"/>
<path d="M33.2116 6.78418L32.0713 7.92445C36.1583 12.0214 36.1583 18.6534 32.0713 22.7503L33.2116 23.8906C37.9287 19.164 37.9287 11.5108 33.2116 6.78418Z" fill="#FFB000"/>
</g>
<defs>
<clipPath id="clip0">
<rect width="40" height="40" fill="white"/>
</clipPath>
</defs>
</svg>
